<?xml version="1.0" encoding="utf-8" standalone="no"?>
<!DOCTYPE svg PUBLIC "-//W3C//DTD SVG 1.1//EN"
  "http://www.w3.org/Graphics/SVG/1.1/DTD/svg11.dtd">
<svg xmlns:xlink="http://www.w3.org/1999/xlink" width="445.756196pt" height="366.885384pt" viewBox="0 0 445.756196 366.885384" xmlns="http://www.w3.org/2000/svg" version="1.1">
 <metadata>
  <rdf:RDF xmlns:dc="http://purl.org/dc/elements/1.1/" xmlns:cc="http://creativecommons.org/ns#" xmlns:rdf="http://www.w3.org/1999/02/22-rdf-syntax-ns#">
   <cc:Work>
    <dc:type rdf:resource="http://purl.org/dc/dcmitype/StillImage"/>
    <dc:date>2026-04-21T16:57:18.797857</dc:date>
    <dc:format>image/svg+xml</dc:format>
    <dc:creator>
     <cc:Agent>
      <dc:title>Matplotlib v3.10.8, https://matplotlib.org/</dc:title>
     </cc:Agent>
    </dc:creator>
   </cc:Work>
  </rdf:RDF>
 </metadata>
 <defs>
  <style type="text/css">*{stroke-linejoin: round; stroke-linecap: butt}</style>
 </defs>
 <g id="figure_1">
  <g id="patch_1">
   <path d="M 0 366.885384 
L 445.756196 366.885384 
L 445.756196 0 
L 0 0 
z
" style="fill: #ffffff"/>
  </g>
  <g id="axes_1">
   <g id="patch_2">
    <path d="M 39.786563 119.133071 
L 146.660365 119.133071 
L 146.660365 45.467717 
L 39.786563 45.467717 
z
" style="fill: #ffffff"/>
   </g>
   <g id="line2d_1">
    <path d="M 39.786563 104.4 
L 146.660365 104.4 
" clip-path="url(#pe12272398f)" style="fill: none; stroke: #808080; stroke-width: 0.6; stroke-linecap: square"/>
   </g>
   <g id="matplotlib.axis_1">
    <g id="xtick_1">
     <g id="line2d_2">
      <defs>
       <path id="m11994f6a2d" d="M 0 0 
L 0 -3.5 
" style="stroke: #000000; stroke-width: 0.8"/>
      </defs>
      <g>
       <use xlink:href="#m11994f6a2d" x="39.786563" y="119.133071" style="stroke: #000000; stroke-width: 0.8"/>
      </g>
     </g>
     <g id="text_1">
      <text style="font-size: 6px; font-family: 'Arial', 'Liberation Sans', 'DejaVu Sans', sans-serif; text-anchor: middle" x="39.786563" y="126.927758" transform="rotate(-0 39.786563 126.927758)">0</text>
     </g>
    </g>
    <g id="xtick_2">
     <g id="line2d_3">
      <g>
       <use xlink:href="#m11994f6a2d" x="61.161323" y="119.133071" style="stroke: #000000; stroke-width: 0.8"/>
      </g>
     </g>
     <g id="text_2">
      <text style="font-size: 6px; font-family: 'Arial', 'Liberation Sans', 'DejaVu Sans', sans-serif; text-anchor: middle" x="61.161323" y="126.927758" transform="rotate(-0 61.161323 126.927758)">2</text>
     </g>
    </g>
    <g id="xtick_3">
     <g id="line2d_4">
      <g>
       <use xlink:href="#m11994f6a2d" x="82.536084" y="119.133071" style="stroke: #000000; stroke-width: 0.8"/>
      </g>
     </g>
     <g id="text_3">
      <text style="font-size: 6px; font-family: 'Arial', 'Liberation Sans', 'DejaVu Sans', sans-serif; text-anchor: middle" x="82.536084" y="126.927758" transform="rotate(-0 82.536084 126.927758)">4</text>
     </g>
    </g>
    <g id="xtick_4">
     <g id="line2d_5">
      <g>
       <use xlink:href="#m11994f6a2d" x="103.910844" y="119.133071" style="stroke: #000000; stroke-width: 0.8"/>
      </g>
     </g>
     <g id="text_4">
      <text style="font-size: 6px; font-family: 'Arial', 'Liberation Sans', 'DejaVu Sans', sans-serif; text-anchor: middle" x="103.910844" y="126.927758" transform="rotate(-0 103.910844 126.927758)">6</text>
     </g>
    </g>
    <g id="xtick_5">
     <g id="line2d_6">
      <g>
       <use xlink:href="#m11994f6a2d" x="125.285605" y="119.133071" style="stroke: #000000; stroke-width: 0.8"/>
      </g>
     </g>
     <g id="text_5">
      <text style="font-size: 6px; font-family: 'Arial', 'Liberation Sans', 'DejaVu Sans', sans-serif; text-anchor: middle" x="125.285605" y="126.927758" transform="rotate(-0 125.285605 126.927758)">8</text>
     </g>
    </g>
    <g id="xtick_6">
     <g id="line2d_7">
      <g>
       <use xlink:href="#m11994f6a2d" x="146.660365" y="119.133071" style="stroke: #000000; stroke-width: 0.8"/>
      </g>
     </g>
     <g id="text_6">
      <text style="font-size: 6px; font-family: 'Arial', 'Liberation Sans', 'DejaVu Sans', sans-serif; text-anchor: middle" x="146.660365" y="126.927758" transform="rotate(-0 146.660365 126.927758)">10</text>
     </g>
    </g>
   </g>
   <g id="matplotlib.axis_2">
    <g id="ytick_1">
     <g id="line2d_8">
      <defs>
       <path id="m442ede4ba4" d="M 0 0 
L 3.5 0 
" style="stroke: #000000; stroke-width: 0.8"/>
      </defs>
      <g>
       <use xlink:href="#m442ede4ba4" x="39.786563" y="119.133071" style="stroke: #000000; stroke-width: 0.8"/>
      </g>
     </g>
     <g id="text_7">
      <text style="font-size: 6px; font-family: 'Arial', 'Liberation Sans', 'DejaVu Sans', sans-serif; text-anchor: end; fill: #333333" x="36.286563" y="121.280415" transform="rotate(-0 36.286563 121.280415)">−100.0</text>
     </g>
    </g>
    <g id="ytick_2">
     <g id="line2d_9">
      <g>
       <use xlink:href="#m442ede4ba4" x="39.786563" y="107.334957" style="stroke: #000000; stroke-width: 0.8"/>
      </g>
     </g>
     <g id="text_8">
      <text style="font-size: 6px; font-family: 'Arial', 'Liberation Sans', 'DejaVu Sans', sans-serif; text-anchor: end; fill: #333333" x="36.286563" y="109.482301" transform="rotate(-0 36.286563 109.482301)">−19.9</text>
     </g>
    </g>
    <g id="ytick_3">
     <g id="line2d_10">
      <g>
       <use xlink:href="#m442ede4ba4" x="39.786563" y="89.666929" style="stroke: #000000; stroke-width: 0.8"/>
      </g>
     </g>
     <g id="text_9">
      <text style="font-size: 6px; font-family: 'Arial', 'Liberation Sans', 'DejaVu Sans', sans-serif; text-anchor: end; fill: #333333" x="36.286563" y="91.814273" transform="rotate(-0 36.286563 91.814273)">100.0</text>
     </g>
    </g>
    <g id="ytick_4">
     <g id="line2d_11">
      <g>
       <use xlink:href="#m442ede4ba4" x="39.786563" y="74.933858" style="stroke: #000000; stroke-width: 0.8"/>
      </g>
     </g>
     <g id="text_10">
      <text style="font-size: 6px; font-family: 'Arial', 'Liberation Sans', 'DejaVu Sans', sans-serif; text-anchor: end; fill: #333333" x="36.286563" y="77.081202" transform="rotate(-0 36.286563 77.081202)">200.0</text>
     </g>
    </g>
    <g id="ytick_5">
     <g id="line2d_12">
      <g>
       <use xlink:href="#m442ede4ba4" x="39.786563" y="55.210352" style="stroke: #000000; stroke-width: 0.8"/>
      </g>
     </g>
     <g id="text_11">
      <text style="font-size: 6px; font-family: 'Arial', 'Liberation Sans', 'DejaVu Sans', sans-serif; text-anchor: end; fill: #333333" x="36.286563" y="57.357695" transform="rotate(-0 36.286563 57.357695)">333.9</text>
     </g>
    </g>
    <g id="ytick_6">
     <g id="line2d_13">
      <g>
       <use xlink:href="#m442ede4ba4" x="39.786563" y="45.467717" style="stroke: #000000; stroke-width: 0.8"/>
      </g>
     </g>
     <g id="text_12">
      <text style="font-size: 6px; font-family: 'Arial', 'Liberation Sans', 'DejaVu Sans', sans-serif; text-anchor: end; fill: #333333" x="36.286563" y="47.61506" transform="rotate(-0 36.286563 47.61506)">400.0</text>
     </g>
    </g>
    <g id="text_13">
     <text style="font-size: 7px; font-family: 'Arial', 'Liberation Sans', 'DejaVu Sans', sans-serif; text-anchor: middle" x="12.295781" y="82.300394" transform="rotate(-90 12.295781 82.300394)">Angle (°)</text>
    </g>
   </g>
   <g id="line2d_14">
    <path d="M 39.786563 104.380626 
L 40.502617 104.74951 
L 43.024839 105.993927 
L 45.237126 106.616267 
L 47.780723 107.041137 
L 52.28011 107.31131 
L 52.93204 107.113239 
L 55.507699 105.547821 
L 55.785571 104.706105 
L 56.11688 102.948621 
L 56.533687 99.298596 
L 57.271117 90.540892 
L 59.846775 58.241393 
L 60.295645 56.416588 
L 60.648329 55.687614 
L 61.150636 55.289398 
L 61.492632 55.221704 
L 61.749129 55.409475 
L 62.091125 55.947344 
L 62.486558 57.121121 
L 64.933968 64.999616 
L 66.6012 69.132943 
L 67.573751 70.862099 
L 68.076058 71.597743 
L 68.332555 71.721504 
L 69.45473 73.155954 
L 70.662404 74.359498 
L 71.399833 74.808489 
L 72.383072 75.141805 
L 73.815181 75.729118 
L 75.685473 76.552437 
L 78.902374 77.944518 
L 80.355858 78.554507 
L 82.012402 78.929023 
L 83.294888 79.026221 
L 84.128503 78.786918 
L 84.577373 78.642661 
L 85.336177 78.525024 
L 86.009482 78.271661 
L 87.046158 77.454884 
L 87.548465 77.385533 
L 88.948512 77.648799 
L 89.504256 78.013339 
L 90.049312 78.866448 
L 91.075301 80.390911 
L 92.2616 81.321759 
L 93.330338 81.796103 
L 94.142579 81.68757 
L 94.452513 81.743356 
L 95.478501 82.053167 
L 100.287822 83.022568 
L 101.431372 83.318617 
L 102.810044 83.739432 
L 104.039093 84.02165 
L 108.666728 85.137622 
L 109.959902 85.269825 
L 110.857641 85.352243 
L 112.909618 85.251764 
L 114.266916 85.072442 
L 115.047095 85.103859 
L 118.103685 85.195342 
L 119.941915 85.91761 
L 120.230474 86.237345 
L 120.401472 86.520427 
L 120.722093 86.637028 
L 122.229014 89.192406 
L 123.938995 91.496574 
L 124.40924 91.50899 
L 125.285605 91.484452 
L 125.681038 91.653561 
L 126.600153 92.425524 
L 127.155896 92.856422 
L 127.519267 92.979974 
L 128.523881 93.706303 
L 130.191112 95.727268 
L 130.843043 96.759896 
L 132.15759 98.883905 
L 132.841583 99.460725 
L 134.134756 100.169968 
L 134.946997 100.415182 
L 136.336356 100.467638 
L 137.640216 100.591052 
L 138.377646 100.861176 
L 139.596007 101.733588 
L 141.006741 102.674916 
L 141.776233 102.942364 
L 142.374726 103.150923 
L 143.069406 103.267292 
L 145.474066 103.813735 
L 146.660365 103.987034 
L 146.660365 103.987034 
" clip-path="url(#pe12272398f)" style="fill: none; stroke: #d62828; stroke-width: 1.2; stroke-linecap: square"/>
   </g>
   <g id="patch_3">
    <path d="M 39.786563 119.133071 
L 39.786563 45.467717 
" style="fill: none; stroke: #000000; stroke-width: 0.8; stroke-linejoin: miter; stroke-linecap: square"/>
   </g>
   <g id="patch_4">
    <path d="M 39.786563 119.133071 
L 146.660365 119.133071 
" style="fill: none; stroke: #000000; stroke-width: 0.8; stroke-linejoin: miter; stroke-linecap: square"/>
   </g>
   <g id="line2d_15">
    <path d="M 39.786563 55.210352 
L 61.428508 55.210352 
" clip-path="url(#pe12272398f)" style="fill: none; stroke-dasharray: 2.59,1.12; stroke-dashoffset: 0; stroke: #8b0000; stroke-opacity: 0.5; stroke-width: 0.7"/>
   </g>
   <g id="line2d_16">
    <path d="M 39.786563 107.334957 
L 51.83124 107.334957 
" clip-path="url(#pe12272398f)" style="fill: none; stroke-dasharray: 2.59,1.12; stroke-dashoffset: 0; stroke: #8b0000; stroke-opacity: 0.5; stroke-width: 0.7"/>
   </g>
   <g id="text_14">
    <text style="font-size: 8px; font-family: 'Arial', 'Liberation Sans', 'DejaVu Sans', sans-serif; text-anchor: middle" x="93.223464" y="42.467717" transform="rotate(-0 93.223464 42.467717)">Channel: CH1 </text>
   </g>
   <g id="PathCollection_1">
    <defs>
     <path id="me41a1fbc06" d="M 0 1.732051 
C 0.459345 1.732051 0.899939 1.549551 1.224745 1.224745 
C 1.549551 0.899939 1.732051 0.459345 1.732051 0 
C 1.732051 -0.459345 1.549551 -0.899939 1.224745 -1.224745 
C 0.899939 -1.549551 0.459345 -1.732051 0 -1.732051 
C -0.459345 -1.732051 -0.899939 -1.549551 -1.224745 -1.224745 
C -1.549551 -0.899939 -1.732051 -0.459345 -1.732051 0 
C -1.732051 0.459345 -1.549551 0.899939 -1.224745 1.224745 
C -0.899939 1.549551 -0.459345 1.732051 0 1.732051 
z
" style="stroke: #8b0000"/>
    </defs>
    <g clip-path="url(#pe12272398f)">
     <use xlink:href="#me41a1fbc06" x="61.428508" y="55.210352" style="fill: #8b0000; stroke: #8b0000"/>
     <use xlink:href="#me41a1fbc06" x="51.83124" y="107.334957" style="fill: #8b0000; stroke: #8b0000"/>
    </g>
   </g>
  </g>
  <g id="axes_2">
   <g id="patch_5">
    <path d="M 184.066196 119.133071 
L 290.939999 119.133071 
L 290.939999 45.467717 
L 184.066196 45.467717 
z
" style="fill: #ffffff"/>
   </g>
   <g id="line2d_17">
    <path d="M 184.066196 89.666929 
L 290.939999 89.666929 
" clip-path="url(#p2d497ccf5f)" style="fill: none; stroke: #808080; stroke-width: 0.6; stroke-linecap: square"/>
   </g>
   <g id="matplotlib.axis_3">
    <g id="xtick_7">
     <g id="line2d_18">
      <g>
       <use xlink:href="#m11994f6a2d" x="184.066196" y="119.133071" style="stroke: #000000; stroke-width: 0.8"/>
      </g>
     </g>
     <g id="text_15">
      <text style="font-size: 6px; font-family: 'Arial', 'Liberation Sans', 'DejaVu Sans', sans-serif; text-anchor: middle" x="184.066196" y="126.927758" transform="rotate(-0 184.066196 126.927758)">0</text>
     </g>
    </g>
    <g id="xtick_8">
     <g id="line2d_19">
      <g>
       <use xlink:href="#m11994f6a2d" x="205.440957" y="119.133071" style="stroke: #000000; stroke-width: 0.8"/>
      </g>
     </g>
     <g id="text_16">
      <text style="font-size: 6px; font-family: 'Arial', 'Liberation Sans', 'DejaVu Sans', sans-serif; text-anchor: middle" x="205.440957" y="126.927758" transform="rotate(-0 205.440957 126.927758)">2</text>
     </g>
    </g>
    <g id="xtick_9">
     <g id="line2d_20">
      <g>
       <use xlink:href="#m11994f6a2d" x="226.815718" y="119.133071" style="stroke: #000000; stroke-width: 0.8"/>
      </g>
     </g>
     <g id="text_17">
      <text style="font-size: 6px; font-family: 'Arial', 'Liberation Sans', 'DejaVu Sans', sans-serif; text-anchor: middle" x="226.815718" y="126.927758" transform="rotate(-0 226.815718 126.927758)">4</text>
     </g>
    </g>
    <g id="xtick_10">
     <g id="line2d_21">
      <g>
       <use xlink:href="#m11994f6a2d" x="248.190478" y="119.133071" style="stroke: #000000; stroke-width: 0.8"/>
      </g>
     </g>
     <g id="text_18">
      <text style="font-size: 6px; font-family: 'Arial', 'Liberation Sans', 'DejaVu Sans', sans-serif; text-anchor: middle" x="248.190478" y="126.927758" transform="rotate(-0 248.190478 126.927758)">6</text>
     </g>
    </g>
    <g id="xtick_11">
     <g id="line2d_22">
      <g>
       <use xlink:href="#m11994f6a2d" x="269.565239" y="119.133071" style="stroke: #000000; stroke-width: 0.8"/>
      </g>
     </g>
     <g id="text_19">
      <text style="font-size: 6px; font-family: 'Arial', 'Liberation Sans', 'DejaVu Sans', sans-serif; text-anchor: middle" x="269.565239" y="126.927758" transform="rotate(-0 269.565239 126.927758)">8</text>
     </g>
    </g>
    <g id="xtick_12">
     <g id="line2d_23">
      <g>
       <use xlink:href="#m11994f6a2d" x="290.939999" y="119.133071" style="stroke: #000000; stroke-width: 0.8"/>
      </g>
     </g>
     <g id="text_20">
      <text style="font-size: 6px; font-family: 'Arial', 'Liberation Sans', 'DejaVu Sans', sans-serif; text-anchor: middle" x="290.939999" y="126.927758" transform="rotate(-0 290.939999 126.927758)">10</text>
     </g>
    </g>
   </g>
   <g id="matplotlib.axis_4">
    <g id="ytick_7">
     <g id="line2d_24">
      <g>
       <use xlink:href="#m442ede4ba4" x="184.066196" y="119.133071" style="stroke: #000000; stroke-width: 0.8"/>
      </g>
     </g>
     <g id="text_21">
      <text style="font-size: 6px; font-family: 'Arial', 'Liberation Sans', 'DejaVu Sans', sans-serif; text-anchor: end; fill: #333333" x="180.566196" y="121.280415" transform="rotate(-0 180.566196 121.280415)">−40.0</text>
     </g>
    </g>
    <g id="ytick_8">
     <g id="line2d_25">
      <g>
       <use xlink:href="#m442ede4ba4" x="184.066196" y="110.85189" style="stroke: #000000; stroke-width: 0.8"/>
      </g>
     </g>
     <g id="text_22">
      <text style="font-size: 6px; font-family: 'Arial', 'Liberation Sans', 'DejaVu Sans', sans-serif; text-anchor: end; fill: #333333" x="180.566196" y="112.999233" transform="rotate(-0 180.566196 112.999233)">−28.8</text>
     </g>
    </g>
    <g id="ytick_9">
     <g id="line2d_26">
      <g>
       <use xlink:href="#m442ede4ba4" x="184.066196" y="104.4" style="stroke: #000000; stroke-width: 0.8"/>
      </g>
     </g>
     <g id="text_23">
      <text style="font-size: 6px; font-family: 'Arial', 'Liberation Sans', 'DejaVu Sans', sans-serif; text-anchor: end; fill: #333333" x="180.566196" y="106.547344" transform="rotate(-0 180.566196 106.547344)">−20.0</text>
     </g>
    </g>
    <g id="ytick_10">
     <g id="line2d_27">
      <g>
       <use xlink:href="#m442ede4ba4" x="184.066196" y="89.666929" style="stroke: #000000; stroke-width: 0.8"/>
      </g>
     </g>
     <g id="text_24">
      <text style="font-size: 6px; font-family: 'Arial', 'Liberation Sans', 'DejaVu Sans', sans-serif; text-anchor: end; fill: #333333" x="180.566196" y="91.814273" transform="rotate(-0 180.566196 91.814273)">0.0</text>
     </g>
    </g>
    <g id="ytick_11">
     <g id="line2d_28">
      <g>
       <use xlink:href="#m442ede4ba4" x="184.066196" y="74.933858" style="stroke: #000000; stroke-width: 0.8"/>
      </g>
     </g>
     <g id="text_25">
      <text style="font-size: 6px; font-family: 'Arial', 'Liberation Sans', 'DejaVu Sans', sans-serif; text-anchor: end; fill: #333333" x="180.566196" y="77.081202" transform="rotate(-0 180.566196 77.081202)">20.0</text>
     </g>
    </g>
    <g id="ytick_12">
     <g id="line2d_29">
      <g>
       <use xlink:href="#m442ede4ba4" x="184.066196" y="57.730269" style="stroke: #000000; stroke-width: 0.8"/>
      </g>
     </g>
     <g id="text_26">
      <text style="font-size: 6px; font-family: 'Arial', 'Liberation Sans', 'DejaVu Sans', sans-serif; text-anchor: end; fill: #333333" x="180.566196" y="59.877612" transform="rotate(-0 180.566196 59.877612)">43.4</text>
     </g>
    </g>
    <g id="ytick_13">
     <g id="line2d_30">
      <g>
       <use xlink:href="#m442ede4ba4" x="184.066196" y="45.467717" style="stroke: #000000; stroke-width: 0.8"/>
      </g>
     </g>
     <g id="text_27">
      <text style="font-size: 6px; font-family: 'Arial', 'Liberation Sans', 'DejaVu Sans', sans-serif; text-anchor: end; fill: #333333" x="180.566196" y="47.61506" transform="rotate(-0 180.566196 47.61506)">60.0</text>
     </g>
    </g>
   </g>
   <g id="line2d_31">
    <path d="M 184.066196 89.723833 
L 184.365443 89.49698 
L 184.9105 89.401799 
L 185.476931 89.62761 
L 186.748729 90.381217 
L 187.774717 91.365062 
L 188.533521 91.850455 
L 189.580885 92.429739 
L 190.681685 92.977889 
L 192.797786 94.219542 
L 194.25127 95.511304 
L 195.672691 97.517429 
L 196.880365 99.900822 
L 197.361298 100.617962 
L 197.478859 100.779157 
L 197.820855 100.895076 
L 198.654471 101.856919 
L 198.921655 101.99337 
L 199.167465 101.888421 
L 199.530836 101.334605 
L 199.787333 100.54385 
L 200.236203 98.303735 
L 200.578199 95.507516 
L 201.230129 87.713077 
L 202.822549 68.958366 
L 203.763038 59.698986 
L 204.072972 58.407856 
L 204.393594 57.878842 
L 204.756965 57.753551 
L 205.056211 57.949126 
L 205.87914 59.051404 
L 206.253198 60.394781 
L 206.712755 62.94606 
L 209.106728 77.031118 
L 209.972406 80.04776 
L 214.803102 94.936354 
L 215.62603 96.501093 
L 217.004703 98.305351 
L 218.030691 99.464054 
L 218.60781 100.056416 
L 221.835398 103.044046 
L 223.085822 104.612996 
L 227.200463 110.844941 
L 227.45696 110.756152 
L 228.140953 110.285157 
L 228.450887 109.696561 
L 228.857007 109.154337 
L 229.209691 109.039075 
L 230.182242 107.625604 
L 230.481489 105.975966 
L 231.037233 103.217179 
L 231.710538 101.383574 
L 232.287656 100.693792 
L 232.907524 99.555479 
L 233.612892 98.547431 
L 233.698391 98.648422 
L 233.912138 99.166229 
L 234.564068 101.663002 
L 235.162562 103.726233 
L 235.354934 103.767946 
L 235.707618 103.831089 
L 235.964115 103.891134 
L 236.958042 103.521568 
L 237.278663 103.443959 
L 237.481723 102.988291 
L 238.240527 100.473596 
L 238.668022 99.332418 
L 238.92452 99.228174 
L 239.5337 98.695853 
L 240.281817 97.648377 
L 240.837561 97.167816 
L 241.53224 96.88331 
L 241.884924 96.589198 
L 243.049848 95.504936 
L 244.642268 95.363262 
L 244.930827 95.388043 
L 245.828567 96.259834 
L 246.833181 97.3765 
L 247.249989 97.58621 
L 248.660723 98.291262 
L 249.323341 98.294549 
L 250.039395 98.781813 
L 251.439442 99.42514 
L 251.963123 99.599925 
L 252.379931 99.813357 
L 252.615054 99.794779 
L 253.512794 99.268207 
L 254.431908 99.239025 
L 254.773904 99.14221 
L 255.714394 98.532358 
L 257.093066 97.370822 
L 258.386239 95.93775 
L 258.803047 96.012145 
L 259.19848 95.899654 
L 259.454977 95.761416 
L 259.882472 95.579088 
L 260.138969 95.433598 
L 260.769525 94.681929 
L 261.410768 93.509306 
L 261.902387 91.99318 
L 262.223009 91.161108 
L 263.131436 89.348391 
L 263.826116 87.324714 
L 264.681106 84.860344 
L 264.99104 84.74202 
L 265.386473 84.120695 
L 265.557471 84.162382 
L 265.824656 84.52066 
L 266.123902 85.358527 
L 266.711708 87.517525 
L 267.68426 93.439852 
L 268.870559 100.602212 
L 269.041557 101.117122 
L 269.351491 101.243163 
L 269.64005 101.61287 
L 270.035484 101.620801 
L 270.345418 101.45126 
L 271.093534 100.950756 
L 271.969899 102.20758 
L 272.482894 103.481742 
L 273.081387 104.984361 
L 273.508882 105.486583 
L 273.947065 106.055688 
L 274.256999 106.282867 
L 274.438684 106.209014 
L 274.684494 105.729311 
L 275.304362 103.801128 
L 275.828044 101.430249 
L 277.880021 90.875307 
L 279.942685 83.182433 
L 280.65874 81.157873 
L 281.257233 80.169979 
L 281.599229 79.866464 
L 281.941225 79.728177 
L 282.197722 79.778343 
L 282.443532 79.997692 
L 282.742779 80.654879 
L 283.362647 82.741667 
L 284.85888 88.298147 
L 285.435999 89.729637 
L 285.628371 90.095238 
L 285.874181 90.227799 
L 286.65436 91.486345 
L 287.007043 91.60751 
L 288.364341 93.141153 
L 289.668201 94.438566 
L 290.170508 94.737934 
L 290.939999 95.057131 
L 290.939999 95.057131 
" clip-path="url(#p2d497ccf5f)" style="fill: none; stroke: #d62828; stroke-width: 1.2; stroke-linecap: square"/>
   </g>
   <g id="patch_6">
    <path d="M 184.066196 119.133071 
L 184.066196 45.467717 
" style="fill: none; stroke: #000000; stroke-width: 0.8; stroke-linejoin: miter; stroke-linecap: square"/>
   </g>
   <g id="patch_7">
    <path d="M 184.066196 119.133071 
L 290.939999 119.133071 
" style="fill: none; stroke: #000000; stroke-width: 0.8; stroke-linejoin: miter; stroke-linecap: square"/>
   </g>
   <g id="line2d_32">
    <path d="M 184.066196 57.730269 
L 204.682153 57.730269 
" clip-path="url(#p2d497ccf5f)" style="fill: none; stroke-dasharray: 2.59,1.12; stroke-dashoffset: 0; stroke: #8b0000; stroke-opacity: 0.5; stroke-width: 0.7"/>
   </g>
   <g id="line2d_33">
    <path d="M 184.066196 110.85189 
L 227.221838 110.85189 
" clip-path="url(#p2d497ccf5f)" style="fill: none; stroke-dasharray: 2.59,1.12; stroke-dashoffset: 0; stroke: #8b0000; stroke-opacity: 0.5; stroke-width: 0.7"/>
   </g>
   <g id="text_28">
    <text style="font-size: 8px; font-family: 'Arial', 'Liberation Sans', 'DejaVu Sans', sans-serif; text-anchor: middle" x="237.503098" y="42.467717" transform="rotate(-0 237.503098 42.467717)">Channel: CH2 </text>
   </g>
   <g id="PathCollection_2">
    <g clip-path="url(#p2d497ccf5f)">
     <use xlink:href="#me41a1fbc06" x="204.682153" y="57.730269" style="fill: #8b0000; stroke: #8b0000"/>
     <use xlink:href="#me41a1fbc06" x="227.221838" y="110.85189" style="fill: #8b0000; stroke: #8b0000"/>
    </g>
   </g>
  </g>
  <g id="axes_3">
   <g id="patch_8">
    <path d="M 328.34583 119.133071 
L 435.219633 119.133071 
L 435.219633 45.467717 
L 328.34583 45.467717 
z
" style="fill: #ffffff"/>
   </g>
   <g id="line2d_34">
    <path d="M 328.34583 100.716732 
L 435.219633 100.716732 
" clip-path="url(#p3d63d0bf1a)" style="fill: none; stroke: #808080; stroke-width: 0.6; stroke-linecap: square"/>
   </g>
   <g id="matplotlib.axis_5">
    <g id="xtick_13">
     <g id="line2d_35">
      <g>
       <use xlink:href="#m11994f6a2d" x="328.34583" y="119.133071" style="stroke: #000000; stroke-width: 0.8"/>
      </g>
     </g>
     <g id="text_29">
      <text style="font-size: 6px; font-family: 'Arial', 'Liberation Sans', 'DejaVu Sans', sans-serif; text-anchor: middle" x="328.34583" y="126.927758" transform="rotate(-0 328.34583 126.927758)">0</text>
     </g>
    </g>
    <g id="xtick_14">
     <g id="line2d_36">
      <g>
       <use xlink:href="#m11994f6a2d" x="349.720591" y="119.133071" style="stroke: #000000; stroke-width: 0.8"/>
      </g>
     </g>
     <g id="text_30">
      <text style="font-size: 6px; font-family: 'Arial', 'Liberation Sans', 'DejaVu Sans', sans-serif; text-anchor: middle" x="349.720591" y="126.927758" transform="rotate(-0 349.720591 126.927758)">2</text>
     </g>
    </g>
    <g id="xtick_15">
     <g id="line2d_37">
      <g>
       <use xlink:href="#m11994f6a2d" x="371.095352" y="119.133071" style="stroke: #000000; stroke-width: 0.8"/>
      </g>
     </g>
     <g id="text_31">
      <text style="font-size: 6px; font-family: 'Arial', 'Liberation Sans', 'DejaVu Sans', sans-serif; text-anchor: middle" x="371.095352" y="126.927758" transform="rotate(-0 371.095352 126.927758)">4</text>
     </g>
    </g>
    <g id="xtick_16">
     <g id="line2d_38">
      <g>
       <use xlink:href="#m11994f6a2d" x="392.470112" y="119.133071" style="stroke: #000000; stroke-width: 0.8"/>
      </g>
     </g>
     <g id="text_32">
      <text style="font-size: 6px; font-family: 'Arial', 'Liberation Sans', 'DejaVu Sans', sans-serif; text-anchor: middle" x="392.470112" y="126.927758" transform="rotate(-0 392.470112 126.927758)">6</text>
     </g>
    </g>
    <g id="xtick_17">
     <g id="line2d_39">
      <g>
       <use xlink:href="#m11994f6a2d" x="413.844873" y="119.133071" style="stroke: #000000; stroke-width: 0.8"/>
      </g>
     </g>
     <g id="text_33">
      <text style="font-size: 6px; font-family: 'Arial', 'Liberation Sans', 'DejaVu Sans', sans-serif; text-anchor: middle" x="413.844873" y="126.927758" transform="rotate(-0 413.844873 126.927758)">8</text>
     </g>
    </g>
    <g id="xtick_18">
     <g id="line2d_40">
      <g>
       <use xlink:href="#m11994f6a2d" x="435.219633" y="119.133071" style="stroke: #000000; stroke-width: 0.8"/>
      </g>
     </g>
     <g id="text_34">
      <text style="font-size: 6px; font-family: 'Arial', 'Liberation Sans', 'DejaVu Sans', sans-serif; text-anchor: middle" x="435.219633" y="126.927758" transform="rotate(-0 435.219633 126.927758)">10</text>
     </g>
    </g>
   </g>
   <g id="matplotlib.axis_6">
    <g id="ytick_14">
     <g id="line2d_41">
      <g>
       <use xlink:href="#m442ede4ba4" x="328.34583" y="119.133071" style="stroke: #000000; stroke-width: 0.8"/>
      </g>
     </g>
     <g id="text_35">
      <text style="font-size: 6px; font-family: 'Arial', 'Liberation Sans', 'DejaVu Sans', sans-serif; text-anchor: end; fill: #333333" x="324.84583" y="121.280415" transform="rotate(-0 324.84583 121.280415)">−1000</text>
     </g>
    </g>
    <g id="ytick_15">
     <g id="line2d_42">
      <g>
       <use xlink:href="#m442ede4ba4" x="328.34583" y="101.453126" style="stroke: #000000; stroke-width: 0.8"/>
      </g>
     </g>
     <g id="text_36">
      <text style="font-size: 6px; font-family: 'Arial', 'Liberation Sans', 'DejaVu Sans', sans-serif; text-anchor: end; fill: #333333" x="324.84583" y="103.600469" transform="rotate(-0 324.84583 103.600469)">−40</text>
     </g>
    </g>
    <g id="ytick_16">
     <g id="line2d_43">
      <g>
       <use xlink:href="#m442ede4ba4" x="328.34583" y="82.300394" style="stroke: #000000; stroke-width: 0.8"/>
      </g>
     </g>
     <g id="text_37">
      <text style="font-size: 6px; font-family: 'Arial', 'Liberation Sans', 'DejaVu Sans', sans-serif; text-anchor: end; fill: #333333" x="324.84583" y="84.447737" transform="rotate(-0 324.84583 84.447737)">1000</text>
     </g>
    </g>
    <g id="ytick_17">
     <g id="line2d_44">
      <g>
       <use xlink:href="#m442ede4ba4" x="328.34583" y="63.653005" style="stroke: #000000; stroke-width: 0.8"/>
      </g>
     </g>
     <g id="text_38">
      <text style="font-size: 6px; font-family: 'Arial', 'Liberation Sans', 'DejaVu Sans', sans-serif; text-anchor: end; fill: #333333" x="324.84583" y="65.800349" transform="rotate(-0 324.84583 65.800349)">2013</text>
     </g>
    </g>
    <g id="ytick_18">
     <g id="line2d_45">
      <g>
       <use xlink:href="#m442ede4ba4" x="328.34583" y="45.467717" style="stroke: #000000; stroke-width: 0.8"/>
      </g>
     </g>
     <g id="text_39">
      <text style="font-size: 6px; font-family: 'Arial', 'Liberation Sans', 'DejaVu Sans', sans-serif; text-anchor: end; fill: #333333" x="324.84583" y="47.61506" transform="rotate(-0 324.84583 47.61506)">3000</text>
     </g>
    </g>
   </g>
   <g id="line2d_46">
    <path d="M 328.34583 100.715149 
L 328.944324 100.825483 
L 329.232883 100.961094 
L 329.863438 101.107395 
L 330.109248 101.45633 
L 330.675679 101.446936 
L 333.646771 101.305089 
L 333.860519 101.181867 
L 336.895735 101.066611 
L 337.002608 101.132498 
L 337.227043 101.272358 
L 337.72935 101.218432 
L 337.814849 101.233243 
L 337.836224 101.180938 
L 338.167533 100.464113 
L 338.477467 100.230791 
L 338.691215 100.14127 
L 339.407269 100.219233 
L 339.492768 100.270531 
L 339.52483 100.173319 
L 339.995075 97.427389 
L 340.486694 91.462188 
L 340.636318 91.395863 
L 340.989001 91.268231 
L 341.213436 91.157932 
L 341.245498 91.238267 
L 341.512683 91.771329 
L 341.758493 91.661966 
L 342.891355 91.555087 
L 343.415037 91.325361 
L 343.436411 91.406458 
L 343.938718 94.436841 
L 344.355526 99.409959 
L 344.483775 99.534591 
L 344.494462 99.531132 
L 345.306703 99.325555 
L 345.659387 99.35078 
L 346.482315 99.616358 
L 347.038059 99.665128 
L 348.245733 100.060182 
L 349.132785 100.435886 
L 350.105337 100.425566 
L 350.864141 100.469564 
L 353.429112 100.566835 
L 357.479629 100.740811 
L 357.746814 100.624798 
L 358.04606 100.466082 
L 358.997237 100.406688 
L 359.253734 100.285822 
L 360.279723 99.002107 
L 361.124026 98.914726 
L 361.273649 98.895376 
L 362.011078 97.922033 
L 362.588197 97.204064 
L 362.844694 97.29844 
L 363.507312 97.535045 
L 364.672236 96.875424 
L 365.580663 97.491606 
L 366.115032 97.734197 
L 369.299872 98.268474 
L 370.486171 98.262307 
L 372.110653 97.789752 
L 372.655709 97.08801 
L 372.826707 96.467732 
L 373.136641 94.889809 
L 373.425201 94.74524 
L 373.842008 93.372543 
L 374.216067 92.654693 
L 374.782498 92.060599 
L 375.402366 89.369803 
L 376.898599 79.374151 
L 377.443655 75.520632 
L 377.9139 74.133415 
L 378.084898 74.298913 
L 378.255896 74.85095 
L 378.587205 75.87478 
L 378.779578 76.578907 
L 379.30326 79.874288 
L 380.136875 87.02955 
L 380.820868 94.307405 
L 381.237676 96.140858 
L 381.568984 96.160481 
L 381.91098 96.21669 
L 382.370538 96.418805 
L 383.54615 96.61006 
L 384.133956 96.562607 
L 385.469878 96.621392 
L 391.58306 97.487506 
L 392.908295 97.77102 
L 397.82449 97.761792 
L 399.844405 97.757405 
L 400.945205 97.799123 
L 402.206316 97.643292 
L 403.296428 97.311461 
L 403.755986 97.131395 
L 404.301042 96.921516 
L 404.974347 96.647537 
L 405.476654 96.291055 
L 406.149959 95.56351 
L 406.363707 95.06173 
L 406.727078 92.888108 
L 407.304196 87.517128 
L 407.571381 85.956251 
L 407.988188 83.479801 
L 408.586682 79.089977 
L 408.96074 74.821912 
L 409.238612 74.568554 
L 410.082915 65.829338 
L 410.403536 63.708123 
L 410.489035 63.818884 
L 410.873781 64.937864 
L 410.969967 64.822125 
L 411.076841 64.780681 
L 411.108903 64.819555 
L 411.247839 65.242152 
L 411.547086 66.025427 
L 411.664647 66.432993 
L 411.921144 68.447719 
L 412.359327 72.344927 
L 413.16088 83.31943 
L 413.321191 85.425252 
L 413.588376 85.561115 
L 414.518178 96.082476 
L 414.99911 98.171002 
L 415.458667 99.334378 
L 415.512104 99.300753 
L 415.715164 99.244946 
L 416.206784 99.350091 
L 416.54878 99.460987 
L 417.69233 98.799521 
L 418.045013 98.716906 
L 418.1412 98.82944 
L 418.397697 99.134346 
L 418.654194 99.226791 
L 419.177876 99.227641 
L 419.819118 98.829315 
L 420.278676 98.467252 
L 423.260455 98.98534 
L 423.613138 99.295327 
L 425.462055 99.083225 
L 426.488044 98.836824 
L 426.659042 98.618846 
L 427.343034 96.57654 
L 428.187337 91.859918 
L 428.529333 90.949306 
L 429.2347 90.490495 
L 429.694258 90.503353 
L 430.292751 90.684008 
L 430.431687 90.800808 
L 430.463749 90.777551 
L 430.634747 90.480048 
L 430.773683 90.373455 
L 430.795058 90.390908 
L 430.933994 90.673401 
L 431.233241 90.795124 
L 431.468363 91.782447 
L 431.842421 93.633541 
L 432.547788 95.079803 
L 433.114219 95.460803 
L 433.92646 95.830389 
L 434.118833 96.133307 
L 435.016573 98.846721 
L 435.219633 98.980297 
L 435.219633 98.980297 
" clip-path="url(#p3d63d0bf1a)" style="fill: none; stroke: #d62828; stroke-width: 1.2; stroke-linecap: square"/>
   </g>
   <g id="patch_9">
    <path d="M 328.34583 119.133071 
L 328.34583 45.467717 
" style="fill: none; stroke: #000000; stroke-width: 0.8; stroke-linejoin: miter; stroke-linecap: square"/>
   </g>
   <g id="patch_10">
    <path d="M 328.34583 119.133071 
L 435.219633 119.133071 
" style="fill: none; stroke: #000000; stroke-width: 0.8; stroke-linejoin: miter; stroke-linecap: square"/>
   </g>
   <g id="line2d_47">
    <path d="M 328.34583 63.653005 
L 410.424911 63.653005 
" clip-path="url(#p3d63d0bf1a)" style="fill: none; stroke-dasharray: 2.59,1.12; stroke-dashoffset: 0; stroke: #8b0000; stroke-opacity: 0.5; stroke-width: 0.7"/>
   </g>
   <g id="line2d_48">
    <path d="M 328.34583 101.453126 
L 330.013062 101.453126 
" clip-path="url(#p3d63d0bf1a)" style="fill: none; stroke-dasharray: 2.59,1.12; stroke-dashoffset: 0; stroke: #8b0000; stroke-opacity: 0.5; stroke-width: 0.7"/>
   </g>
   <g id="text_40">
    <text style="font-size: 8px; font-family: 'Arial', 'Liberation Sans', 'DejaVu Sans', sans-serif; text-anchor: middle" x="381.782732" y="42.467717" transform="rotate(-0 381.782732 42.467717)">Channel: CH3 </text>
   </g>
   <g id="PathCollection_3">
    <g clip-path="url(#p3d63d0bf1a)">
     <use xlink:href="#me41a1fbc06" x="410.424911" y="63.653005" style="fill: #8b0000; stroke: #8b0000"/>
     <use xlink:href="#me41a1fbc06" x="330.013062" y="101.453126" style="fill: #8b0000; stroke: #8b0000"/>
    </g>
   </g>
  </g>
  <g id="axes_4">
   <g id="patch_11">
    <path d="M 39.786563 229.631102 
L 146.660365 229.631102 
L 146.660365 155.965748 
L 39.786563 155.965748 
z
" style="fill: #ffffff"/>
   </g>
   <g id="line2d_49">
    <path d="M 39.786563 211.214764 
L 146.660365 211.214764 
" clip-path="url(#p6afd528861)" style="fill: none; stroke: #808080; stroke-width: 0.6; stroke-linecap: square"/>
   </g>
   <g id="matplotlib.axis_7">
    <g id="xtick_19">
     <g id="line2d_50">
      <g>
       <use xlink:href="#m11994f6a2d" x="39.786563" y="229.631102" style="stroke: #000000; stroke-width: 0.8"/>
      </g>
     </g>
     <g id="text_41">
      <text style="font-size: 6px; font-family: 'Arial', 'Liberation Sans', 'DejaVu Sans', sans-serif; text-anchor: middle" x="39.786563" y="237.42579" transform="rotate(-0 39.786563 237.42579)">0</text>
     </g>
    </g>
    <g id="xtick_20">
     <g id="line2d_51">
      <g>
       <use xlink:href="#m11994f6a2d" x="61.161323" y="229.631102" style="stroke: #000000; stroke-width: 0.8"/>
      </g>
     </g>
     <g id="text_42">
      <text style="font-size: 6px; font-family: 'Arial', 'Liberation Sans', 'DejaVu Sans', sans-serif; text-anchor: middle" x="61.161323" y="237.42579" transform="rotate(-0 61.161323 237.42579)">2</text>
     </g>
    </g>
    <g id="xtick_21">
     <g id="line2d_52">
      <g>
       <use xlink:href="#m11994f6a2d" x="82.536084" y="229.631102" style="stroke: #000000; stroke-width: 0.8"/>
      </g>
     </g>
     <g id="text_43">
      <text style="font-size: 6px; font-family: 'Arial', 'Liberation Sans', 'DejaVu Sans', sans-serif; text-anchor: middle" x="82.536084" y="237.42579" transform="rotate(-0 82.536084 237.42579)">4</text>
     </g>
    </g>
    <g id="xtick_22">
     <g id="line2d_53">
      <g>
       <use xlink:href="#m11994f6a2d" x="103.910844" y="229.631102" style="stroke: #000000; stroke-width: 0.8"/>
      </g>
     </g>
     <g id="text_44">
      <text style="font-size: 6px; font-family: 'Arial', 'Liberation Sans', 'DejaVu Sans', sans-serif; text-anchor: middle" x="103.910844" y="237.42579" transform="rotate(-0 103.910844 237.42579)">6</text>
     </g>
    </g>
    <g id="xtick_23">
     <g id="line2d_54">
      <g>
       <use xlink:href="#m11994f6a2d" x="125.285605" y="229.631102" style="stroke: #000000; stroke-width: 0.8"/>
      </g>
     </g>
     <g id="text_45">
      <text style="font-size: 6px; font-family: 'Arial', 'Liberation Sans', 'DejaVu Sans', sans-serif; text-anchor: middle" x="125.285605" y="237.42579" transform="rotate(-0 125.285605 237.42579)">8</text>
     </g>
    </g>
    <g id="xtick_24">
     <g id="line2d_55">
      <g>
       <use xlink:href="#m11994f6a2d" x="146.660365" y="229.631102" style="stroke: #000000; stroke-width: 0.8"/>
      </g>
     </g>
     <g id="text_46">
      <text style="font-size: 6px; font-family: 'Arial', 'Liberation Sans', 'DejaVu Sans', sans-serif; text-anchor: middle" x="146.660365" y="237.42579" transform="rotate(-0 146.660365 237.42579)">10</text>
     </g>
    </g>
   </g>
   <g id="matplotlib.axis_8">
    <g id="ytick_19">
     <g id="line2d_56">
      <g>
       <use xlink:href="#m442ede4ba4" x="39.786563" y="229.631102" style="stroke: #000000; stroke-width: 0.8"/>
      </g>
     </g>
     <g id="text_47">
      <text style="font-size: 6px; font-family: 'Arial', 'Liberation Sans', 'DejaVu Sans', sans-serif; text-anchor: end; fill: #333333" x="36.286563" y="231.778446" transform="rotate(-0 36.286563 231.778446)">−50.0</text>
     </g>
    </g>
    <g id="ytick_20">
     <g id="line2d_57">
      <g>
       <use xlink:href="#m442ede4ba4" x="39.786563" y="217.342386" style="stroke: #000000; stroke-width: 0.8"/>
      </g>
     </g>
     <g id="text_48">
      <text style="font-size: 6px; font-family: 'Arial', 'Liberation Sans', 'DejaVu Sans', sans-serif; text-anchor: end; fill: #333333" x="36.286563" y="219.48973" transform="rotate(-0 36.286563 219.48973)">−16.6</text>
     </g>
    </g>
    <g id="ytick_21">
     <g id="line2d_58">
      <g>
       <use xlink:href="#m442ede4ba4" x="39.786563" y="211.214764" style="stroke: #000000; stroke-width: 0.8"/>
      </g>
     </g>
     <g id="text_49">
      <text style="font-size: 6px; font-family: 'Arial', 'Liberation Sans', 'DejaVu Sans', sans-serif; text-anchor: end; fill: #333333" x="36.286563" y="213.362108" transform="rotate(-0 36.286563 213.362108)">0.0</text>
     </g>
    </g>
    <g id="ytick_22">
     <g id="line2d_59">
      <g>
       <use xlink:href="#m442ede4ba4" x="39.786563" y="192.798425" style="stroke: #000000; stroke-width: 0.8"/>
      </g>
     </g>
     <g id="text_50">
      <text style="font-size: 6px; font-family: 'Arial', 'Liberation Sans', 'DejaVu Sans', sans-serif; text-anchor: end; fill: #333333" x="36.286563" y="194.945769" transform="rotate(-0 36.286563 194.945769)">50.0</text>
     </g>
    </g>
    <g id="ytick_23">
     <g id="line2d_60">
      <g>
       <use xlink:href="#m442ede4ba4" x="39.786563" y="172.694309" style="stroke: #000000; stroke-width: 0.8"/>
      </g>
     </g>
     <g id="text_51">
      <text style="font-size: 6px; font-family: 'Arial', 'Liberation Sans', 'DejaVu Sans', sans-serif; text-anchor: end; fill: #333333" x="36.286563" y="174.841653" transform="rotate(-0 36.286563 174.841653)">104.6</text>
     </g>
    </g>
    <g id="ytick_24">
     <g id="line2d_61">
      <g>
       <use xlink:href="#m442ede4ba4" x="39.786563" y="155.965748" style="stroke: #000000; stroke-width: 0.8"/>
      </g>
     </g>
     <g id="text_52">
      <text style="font-size: 6px; font-family: 'Arial', 'Liberation Sans', 'DejaVu Sans', sans-serif; text-anchor: end; fill: #333333" x="36.286563" y="158.113092" transform="rotate(-0 36.286563 158.113092)">150.0</text>
     </g>
    </g>
    <g id="text_53">
     <text style="font-size: 7px; font-family: 'Arial', 'Liberation Sans', 'DejaVu Sans', sans-serif; text-anchor: middle" x="15.632344" y="192.798425" transform="rotate(-90 15.632344 192.798425)">Angle (°)</text>
    </g>
   </g>
   <g id="line2d_62">
    <path d="M 39.786563 211.167201 
L 40.459867 211.642253 
L 41.806477 211.952703 
L 43.356148 212.197033 
L 45.600497 212.573704 
L 46.295177 212.717892 
L 47.267729 213.014798 
L 48.68915 213.483982 
L 50.506005 214.033949 
L 51.307558 214.357072 
L 51.649555 214.721995 
L 53.199225 216.475368 
L 53.573283 216.602559 
L 53.883217 216.929736 
L 54.193151 217.058197 
L 54.663396 217.320085 
L 54.984017 217.285573 
L 55.347388 216.937066 
L 55.956569 215.709029 
L 56.405439 214.471903 
L 56.950495 212.27432 
L 57.506239 209.139108 
L 58.350542 202.849568 
L 60.979638 180.678098 
L 61.535381 178.491912 
L 61.856003 177.999489 
L 62.294185 177.763428 
L 62.625494 177.845882 
L 63.031615 178.263976 
L 63.565984 179.084486 
L 67.103507 185.028302 
L 68.076058 186.36542 
L 68.343243 186.484877 
L 70.053223 188.449589 
L 70.886839 189.122588 
L 72.425822 190.089911 
L 74.018242 190.934708 
L 75.974032 191.607642 
L 77.267205 191.972405 
L 78.421442 192.3477 
L 80.473419 192.986943 
L 82.119276 193.305818 
L 82.931517 193.333638 
L 83.423136 192.897601 
L 83.957505 192.239064 
L 84.577373 191.309602 
L 84.940744 191.186859 
L 85.934671 189.927756 
L 87.388154 186.317616 
L 88.17902 185.443485 
L 88.638578 184.925965 
L 89.162259 184.282042 
L 89.397382 184.103982 
L 89.643192 184.20484 
L 90.87224 184.998226 
L 91.150112 184.742297 
L 91.994415 183.682177 
L 92.507409 183.010583 
L 93.11659 182.292641 
L 93.939518 180.570577 
L 94.559387 179.205035 
L 96.846486 175.68391 
L 98.577841 174.138785 
L 99.016024 173.961098 
L 101.527558 172.7036 
L 102.681796 172.934441 
L 103.579535 173.236368 
L 104.423839 173.514338 
L 106.764375 173.868418 
L 107.779676 173.890918 
L 108.29267 173.845576 
L 109.489657 173.641402 
L 109.949214 173.719161 
L 110.772142 173.945363 
L 111.894317 174.015875 
L 113.166116 173.710302 
L 114.202791 173.228398 
L 114.694411 173.26394 
L 115.357029 173.385551 
L 116.361642 173.815974 
L 117.173883 174.497594 
L 118.114373 175.591334 
L 118.734241 176.818698 
L 120.401472 180.803769 
L 120.711406 180.929789 
L 121.897705 183.447516 
L 123.244315 185.74585 
L 124.6123 188.209615 
L 124.761923 188.414157 
L 125.103919 188.530667 
L 125.873411 189.391217 
L 126.792525 190.325455 
L 127.155896 190.546925 
L 127.540642 190.670433 
L 128.139135 191.090496 
L 130.693419 193.647845 
L 131.633909 194.780223 
L 132.734709 195.561091 
L 133.130142 195.576336 
L 134.348503 195.23238 
L 135.663051 194.789056 
L 138.634143 195.165666 
L 139.275386 195.514758 
L 141.284613 196.616499 
L 142.374726 197.05053 
L 143.069406 197.169846 
L 144.6832 197.778607 
L 145.890874 198.160487 
L 146.660365 198.291472 
L 146.660365 198.291472 
" clip-path="url(#p6afd528861)" style="fill: none; stroke: #d62828; stroke-width: 1.2; stroke-linecap: square"/>
   </g>
   <g id="patch_12">
    <path d="M 39.786563 229.631102 
L 39.786563 155.965748 
" style="fill: none; stroke: #000000; stroke-width: 0.8; stroke-linejoin: miter; stroke-linecap: square"/>
   </g>
   <g id="patch_13">
    <path d="M 39.786563 229.631102 
L 146.660365 229.631102 
" style="fill: none; stroke: #000000; stroke-width: 0.8; stroke-linejoin: miter; stroke-linecap: square"/>
   </g>
   <g id="line2d_63">
    <path d="M 39.786563 172.694309 
L 101.377935 172.694309 
" clip-path="url(#p6afd528861)" style="fill: none; stroke-dasharray: 2.59,1.12; stroke-dashoffset: 0; stroke: #8b0000; stroke-opacity: 0.5; stroke-width: 0.7"/>
   </g>
   <g id="line2d_64">
    <path d="M 39.786563 217.342386 
L 54.866456 217.342386 
" clip-path="url(#p6afd528861)" style="fill: none; stroke-dasharray: 2.59,1.12; stroke-dashoffset: 0; stroke: #8b0000; stroke-opacity: 0.5; stroke-width: 0.7"/>
   </g>
   <g id="text_54">
    <text style="font-size: 8px; font-family: 'Arial', 'Liberation Sans', 'DejaVu Sans', sans-serif; text-anchor: middle" x="93.223464" y="152.965748" transform="rotate(-0 93.223464 152.965748)">Channel: CH4 </text>
   </g>
   <g id="PathCollection_4">
    <g clip-path="url(#p6afd528861)">
     <use xlink:href="#me41a1fbc06" x="101.377935" y="172.694309" style="fill: #8b0000; stroke: #8b0000"/>
     <use xlink:href="#me41a1fbc06" x="54.866456" y="217.342386" style="fill: #8b0000; stroke: #8b0000"/>
    </g>
   </g>
  </g>
  <g id="axes_5">
   <g id="patch_14">
    <path d="M 184.066196 229.631102 
L 290.939999 229.631102 
L 290.939999 155.965748 
L 184.066196 155.965748 
z
" style="fill: #ffffff"/>
   </g>
   <g id="line2d_65">
    <path d="M 184.066196 211.214764 
L 290.939999 211.214764 
" clip-path="url(#pd98bcd6d41)" style="fill: none; stroke: #808080; stroke-width: 0.6; stroke-linecap: square"/>
   </g>
   <g id="matplotlib.axis_9">
    <g id="xtick_25">
     <g id="line2d_66">
      <g>
       <use xlink:href="#m11994f6a2d" x="184.066196" y="229.631102" style="stroke: #000000; stroke-width: 0.8"/>
      </g>
     </g>
     <g id="text_55">
      <text style="font-size: 6px; font-family: 'Arial', 'Liberation Sans', 'DejaVu Sans', sans-serif; text-anchor: middle" x="184.066196" y="237.42579" transform="rotate(-0 184.066196 237.42579)">0</text>
     </g>
    </g>
    <g id="xtick_26">
     <g id="line2d_67">
      <g>
       <use xlink:href="#m11994f6a2d" x="205.440957" y="229.631102" style="stroke: #000000; stroke-width: 0.8"/>
      </g>
     </g>
     <g id="text_56">
      <text style="font-size: 6px; font-family: 'Arial', 'Liberation Sans', 'DejaVu Sans', sans-serif; text-anchor: middle" x="205.440957" y="237.42579" transform="rotate(-0 205.440957 237.42579)">2</text>
     </g>
    </g>
    <g id="xtick_27">
     <g id="line2d_68">
      <g>
       <use xlink:href="#m11994f6a2d" x="226.815718" y="229.631102" style="stroke: #000000; stroke-width: 0.8"/>
      </g>
     </g>
     <g id="text_57">
      <text style="font-size: 6px; font-family: 'Arial', 'Liberation Sans', 'DejaVu Sans', sans-serif; text-anchor: middle" x="226.815718" y="237.42579" transform="rotate(-0 226.815718 237.42579)">4</text>
     </g>
    </g>
    <g id="xtick_28">
     <g id="line2d_69">
      <g>
       <use xlink:href="#m11994f6a2d" x="248.190478" y="229.631102" style="stroke: #000000; stroke-width: 0.8"/>
      </g>
     </g>
     <g id="text_58">
      <text style="font-size: 6px; font-family: 'Arial', 'Liberation Sans', 'DejaVu Sans', sans-serif; text-anchor: middle" x="248.190478" y="237.42579" transform="rotate(-0 248.190478 237.42579)">6</text>
     </g>
    </g>
    <g id="xtick_29">
     <g id="line2d_70">
      <g>
       <use xlink:href="#m11994f6a2d" x="269.565239" y="229.631102" style="stroke: #000000; stroke-width: 0.8"/>
      </g>
     </g>
     <g id="text_59">
      <text style="font-size: 6px; font-family: 'Arial', 'Liberation Sans', 'DejaVu Sans', sans-serif; text-anchor: middle" x="269.565239" y="237.42579" transform="rotate(-0 269.565239 237.42579)">8</text>
     </g>
    </g>
    <g id="xtick_30">
     <g id="line2d_71">
      <g>
       <use xlink:href="#m11994f6a2d" x="290.939999" y="229.631102" style="stroke: #000000; stroke-width: 0.8"/>
      </g>
     </g>
     <g id="text_60">
      <text style="font-size: 6px; font-family: 'Arial', 'Liberation Sans', 'DejaVu Sans', sans-serif; text-anchor: middle" x="290.939999" y="237.42579" transform="rotate(-0 290.939999 237.42579)">10</text>
     </g>
    </g>
   </g>
   <g id="matplotlib.axis_10">
    <g id="ytick_25">
     <g id="line2d_72">
      <g>
       <use xlink:href="#m442ede4ba4" x="184.066196" y="229.631102" style="stroke: #000000; stroke-width: 0.8"/>
      </g>
     </g>
     <g id="text_61">
      <text style="font-size: 6px; font-family: 'Arial', 'Liberation Sans', 'DejaVu Sans', sans-serif; text-anchor: end; fill: #333333" x="180.566196" y="231.778446" transform="rotate(-0 180.566196 231.778446)">−100.0</text>
     </g>
    </g>
    <g id="ytick_26">
     <g id="line2d_73">
      <g>
       <use xlink:href="#m442ede4ba4" x="184.066196" y="212.62563" style="stroke: #000000; stroke-width: 0.8"/>
      </g>
     </g>
     <g id="text_62">
      <text style="font-size: 6px; font-family: 'Arial', 'Liberation Sans', 'DejaVu Sans', sans-serif; text-anchor: end; fill: #333333" x="180.566196" y="214.772974" transform="rotate(-0 180.566196 214.772974)">−7.7</text>
     </g>
    </g>
    <g id="ytick_27">
     <g id="line2d_74">
      <g>
       <use xlink:href="#m442ede4ba4" x="184.066196" y="192.798425" style="stroke: #000000; stroke-width: 0.8"/>
      </g>
     </g>
     <g id="text_63">
      <text style="font-size: 6px; font-family: 'Arial', 'Liberation Sans', 'DejaVu Sans', sans-serif; text-anchor: end; fill: #333333" x="180.566196" y="194.945769" transform="rotate(-0 180.566196 194.945769)">100.0</text>
     </g>
    </g>
    <g id="ytick_28">
     <g id="line2d_75">
      <g>
       <use xlink:href="#m442ede4ba4" x="184.066196" y="176.167688" style="stroke: #000000; stroke-width: 0.8"/>
      </g>
     </g>
     <g id="text_64">
      <text style="font-size: 6px; font-family: 'Arial', 'Liberation Sans', 'DejaVu Sans', sans-serif; text-anchor: end; fill: #333333" x="180.566196" y="178.315032" transform="rotate(-0 180.566196 178.315032)">190.3</text>
     </g>
    </g>
    <g id="ytick_29">
     <g id="line2d_76">
      <g>
       <use xlink:href="#m442ede4ba4" x="184.066196" y="155.965748" style="stroke: #000000; stroke-width: 0.8"/>
      </g>
     </g>
     <g id="text_65">
      <text style="font-size: 6px; font-family: 'Arial', 'Liberation Sans', 'DejaVu Sans', sans-serif; text-anchor: end; fill: #333333" x="180.566196" y="158.113092" transform="rotate(-0 180.566196 158.113092)">300.0</text>
     </g>
    </g>
   </g>
   <g id="line2d_77">
    <path d="M 184.066196 211.19961 
L 186.481544 211.764248 
L 190.874058 212.500255 
L 192.605413 212.599069 
L 195.138322 212.553446 
L 196.121561 212.347556 
L 196.762804 211.875096 
L 197.478859 211.027914 
L 197.810168 210.910181 
L 198.162851 210.286706 
L 198.397973 210.162038 
L 199.862145 207.514945 
L 200.161391 207.457311 
L 200.770572 207.651621 
L 201.807248 208.115315 
L 202.106494 207.904403 
L 202.427116 207.364557 
L 202.790487 206.260396 
L 203.228669 204.15223 
L 203.773726 200.158587 
L 206.253198 180.731702 
L 206.830316 178.313957 
L 207.311249 177.171408 
L 207.824243 176.434881 
L 208.230363 176.199982 
L 208.689921 176.201198 
L 209.106728 176.447194 
L 209.737284 177.177229 
L 211.18008 178.838009 
L 212.355692 179.872348 
L 212.687001 179.996301 
L 213.883987 180.777724 
L 217.678007 182.761928 
L 219.580361 183.471216 
L 224.528618 185.092686 
L 226.313411 185.393444 
L 227.45696 185.436834 
L 228.311951 185.085677 
L 228.857007 184.803323 
L 229.434126 184.685392 
L 230.299804 184.235869 
L 231.29373 183.166963 
L 231.806724 183.002925 
L 232.554841 182.870498 
L 233.153334 182.825848 
L 233.826639 182.92162 
L 235.301498 184.038974 
L 236.423673 183.873978 
L 237.78097 183.375614 
L 238.486337 182.760318 
L 238.828333 182.590132 
L 240.153568 181.8911 
L 242.804039 180.590454 
L 244.086524 180.347753 
L 246.533934 179.959201 
L 247.634734 179.759511 
L 254.05785 178.480947 
L 257.135816 177.427665 
L 259.219855 176.605941 
L 260.448903 176.590395 
L 261.164958 176.898842 
L 262.030636 177.710999 
L 262.54363 178.524917 
L 263.729929 180.817063 
L 264.681106 182.922934 
L 264.99104 183.044047 
L 266.220089 185.557747 
L 267.791134 188.168265 
L 269.041557 190.339151 
L 269.372866 190.466161 
L 271.392781 193.702623 
L 271.43553 193.745525 
L 271.734777 193.872719 
L 272.664579 194.912703 
L 275.92423 199.195076 
L 277.142591 200.039553 
L 279.761 201.357313 
L 281.588542 201.777053 
L 282.539718 202.028782 
L 283.55502 202.579477 
L 285.318437 203.43756 
L 286.280302 203.664736 
L 287.79791 203.891326 
L 290.939999 204.401135 
L 290.939999 204.401135 
" clip-path="url(#pd98bcd6d41)" style="fill: none; stroke: #d62828; stroke-width: 1.2; stroke-linecap: square"/>
   </g>
   <g id="patch_15">
    <path d="M 184.066196 229.631102 
L 184.066196 155.965748 
" style="fill: none; stroke: #000000; stroke-width: 0.8; stroke-linejoin: miter; stroke-linecap: square"/>
   </g>
   <g id="patch_16">
    <path d="M 184.066196 229.631102 
L 290.939999 229.631102 
" style="fill: none; stroke: #000000; stroke-width: 0.8; stroke-linejoin: miter; stroke-linecap: square"/>
   </g>
   <g id="line2d_78">
    <path d="M 184.066196 176.167688 
L 208.518923 176.167688 
" clip-path="url(#pd98bcd6d41)" style="fill: none; stroke-dasharray: 2.59,1.12; stroke-dashoffset: 0; stroke: #8b0000; stroke-opacity: 0.5; stroke-width: 0.7"/>
   </g>
   <g id="line2d_79">
    <path d="M 184.066196 212.62563 
L 193.684839 212.62563 
" clip-path="url(#pd98bcd6d41)" style="fill: none; stroke-dasharray: 2.59,1.12; stroke-dashoffset: 0; stroke: #8b0000; stroke-opacity: 0.5; stroke-width: 0.7"/>
   </g>
   <g id="text_66">
    <text style="font-size: 8px; font-family: 'Arial', 'Liberation Sans', 'DejaVu Sans', sans-serif; text-anchor: middle" x="237.503098" y="152.965748" transform="rotate(-0 237.503098 152.965748)">Channel: CH5 </text>
   </g>
   <g id="PathCollection_5">
    <g clip-path="url(#pd98bcd6d41)">
     <use xlink:href="#me41a1fbc06" x="208.518923" y="176.167688" style="fill: #8b0000; stroke: #8b0000"/>
     <use xlink:href="#me41a1fbc06" x="193.684839" y="212.62563" style="fill: #8b0000; stroke: #8b0000"/>
    </g>
   </g>
  </g>
  <g id="axes_6">
   <g id="patch_17">
    <path d="M 328.34583 229.631102 
L 435.219633 229.631102 
L 435.219633 155.965748 
L 328.34583 155.965748 
z
" style="fill: #ffffff"/>
   </g>
   <g id="line2d_80">
    <path d="M 328.34583 211.214764 
L 435.219633 211.214764 
" clip-path="url(#p2ad85d2fc3)" style="fill: none; stroke: #808080; stroke-width: 0.6; stroke-linecap: square"/>
   </g>
   <g id="matplotlib.axis_11">
    <g id="xtick_31">
     <g id="line2d_81">
      <g>
       <use xlink:href="#m11994f6a2d" x="328.34583" y="229.631102" style="stroke: #000000; stroke-width: 0.8"/>
      </g>
     </g>
     <g id="text_67">
      <text style="font-size: 6px; font-family: 'Arial', 'Liberation Sans', 'DejaVu Sans', sans-serif; text-anchor: middle" x="328.34583" y="237.42579" transform="rotate(-0 328.34583 237.42579)">0</text>
     </g>
    </g>
    <g id="xtick_32">
     <g id="line2d_82">
      <g>
       <use xlink:href="#m11994f6a2d" x="349.720591" y="229.631102" style="stroke: #000000; stroke-width: 0.8"/>
      </g>
     </g>
     <g id="text_68">
      <text style="font-size: 6px; font-family: 'Arial', 'Liberation Sans', 'DejaVu Sans', sans-serif; text-anchor: middle" x="349.720591" y="237.42579" transform="rotate(-0 349.720591 237.42579)">2</text>
     </g>
    </g>
    <g id="xtick_33">
     <g id="line2d_83">
      <g>
       <use xlink:href="#m11994f6a2d" x="371.095352" y="229.631102" style="stroke: #000000; stroke-width: 0.8"/>
      </g>
     </g>
     <g id="text_69">
      <text style="font-size: 6px; font-family: 'Arial', 'Liberation Sans', 'DejaVu Sans', sans-serif; text-anchor: middle" x="371.095352" y="237.42579" transform="rotate(-0 371.095352 237.42579)">4</text>
     </g>
    </g>
    <g id="xtick_34">
     <g id="line2d_84">
      <g>
       <use xlink:href="#m11994f6a2d" x="392.470112" y="229.631102" style="stroke: #000000; stroke-width: 0.8"/>
      </g>
     </g>
     <g id="text_70">
      <text style="font-size: 6px; font-family: 'Arial', 'Liberation Sans', 'DejaVu Sans', sans-serif; text-anchor: middle" x="392.470112" y="237.42579" transform="rotate(-0 392.470112 237.42579)">6</text>
     </g>
    </g>
    <g id="xtick_35">
     <g id="line2d_85">
      <g>
       <use xlink:href="#m11994f6a2d" x="413.844873" y="229.631102" style="stroke: #000000; stroke-width: 0.8"/>
      </g>
     </g>
     <g id="text_71">
      <text style="font-size: 6px; font-family: 'Arial', 'Liberation Sans', 'DejaVu Sans', sans-serif; text-anchor: middle" x="413.844873" y="237.42579" transform="rotate(-0 413.844873 237.42579)">8</text>
     </g>
    </g>
    <g id="xtick_36">
     <g id="line2d_86">
      <g>
       <use xlink:href="#m11994f6a2d" x="435.219633" y="229.631102" style="stroke: #000000; stroke-width: 0.8"/>
      </g>
     </g>
     <g id="text_72">
      <text style="font-size: 6px; font-family: 'Arial', 'Liberation Sans', 'DejaVu Sans', sans-serif; text-anchor: middle" x="435.219633" y="237.42579" transform="rotate(-0 435.219633 237.42579)">10</text>
     </g>
    </g>
   </g>
   <g id="matplotlib.axis_12">
    <g id="ytick_30">
     <g id="line2d_87">
      <g>
       <use xlink:href="#m442ede4ba4" x="328.34583" y="229.631102" style="stroke: #000000; stroke-width: 0.8"/>
      </g>
     </g>
     <g id="text_73">
      <text style="font-size: 6px; font-family: 'Arial', 'Liberation Sans', 'DejaVu Sans', sans-serif; text-anchor: end; fill: #333333" x="324.84583" y="231.778446" transform="rotate(-0 324.84583 231.778446)">−50.0</text>
     </g>
    </g>
    <g id="ytick_31">
     <g id="line2d_88">
      <g>
       <use xlink:href="#m442ede4ba4" x="328.34583" y="214.460519" style="stroke: #000000; stroke-width: 0.8"/>
      </g>
     </g>
     <g id="text_74">
      <text style="font-size: 6px; font-family: 'Arial', 'Liberation Sans', 'DejaVu Sans', sans-serif; text-anchor: end; fill: #333333" x="324.84583" y="216.607863" transform="rotate(-0 324.84583 216.607863)">−8.8</text>
     </g>
    </g>
    <g id="ytick_32">
     <g id="line2d_89">
      <g>
       <use xlink:href="#m442ede4ba4" x="328.34583" y="192.798425" style="stroke: #000000; stroke-width: 0.8"/>
      </g>
     </g>
     <g id="text_75">
      <text style="font-size: 6px; font-family: 'Arial', 'Liberation Sans', 'DejaVu Sans', sans-serif; text-anchor: end; fill: #333333" x="324.84583" y="194.945769" transform="rotate(-0 324.84583 194.945769)">50.0</text>
     </g>
    </g>
    <g id="ytick_33">
     <g id="line2d_90">
      <g>
       <use xlink:href="#m442ede4ba4" x="328.34583" y="170.368045" style="stroke: #000000; stroke-width: 0.8"/>
      </g>
     </g>
     <g id="text_76">
      <text style="font-size: 6px; font-family: 'Arial', 'Liberation Sans', 'DejaVu Sans', sans-serif; text-anchor: end; fill: #333333" x="324.84583" y="172.515388" transform="rotate(-0 324.84583 172.515388)">110.9</text>
     </g>
    </g>
    <g id="ytick_34">
     <g id="line2d_91">
      <g>
       <use xlink:href="#m442ede4ba4" x="328.34583" y="155.965748" style="stroke: #000000; stroke-width: 0.8"/>
      </g>
     </g>
     <g id="text_77">
      <text style="font-size: 6px; font-family: 'Arial', 'Liberation Sans', 'DejaVu Sans', sans-serif; text-anchor: end; fill: #333333" x="324.84583" y="158.113092" transform="rotate(-0 324.84583 158.113092)">150.0</text>
     </g>
    </g>
   </g>
   <g id="line2d_92">
    <path d="M 328.34583 211.212945 
L 328.687827 211.288764 
L 329.468005 211.60673 
L 330.322996 211.916074 
L 334.138391 212.969323 
L 340.828691 213.990393 
L 341.683681 214.186556 
L 343.511223 214.444782 
L 344.195215 214.160131 
L 344.718897 213.69007 
L 345.071581 212.761712 
L 345.616637 210.683194 
L 346.161693 207.878804 
L 346.834998 203.137059 
L 347.636552 195.301488 
L 349.186222 180.284208 
L 349.966401 174.636098 
L 350.468708 172.334341 
L 350.992389 170.961822 
L 351.366448 170.449342 
L 351.708444 170.371801 
L 352.082502 170.53497 
L 352.467248 170.930267 
L 353.215364 172.121209 
L 353.931419 173.593 
L 356.635326 180.112515 
L 356.870448 180.24616 
L 357.907124 182.134362 
L 359.18961 183.985063 
L 361.070589 186.153762 
L 362.182076 187.135778 
L 363.977556 188.125427 
L 365.217292 188.732741 
L 367.589891 189.594577 
L 370.507546 190.233875 
L 371.661783 190.18453 
L 372.303026 189.550536 
L 372.709146 188.905708 
L 373.136641 188.29693 
L 373.500012 188.176855 
L 374.504626 186.931805 
L 375.808486 183.72569 
L 376.107733 183.46883 
L 376.770351 182.874477 
L 377.176471 182.569382 
L 377.774964 182.103171 
L 377.95665 182.106676 
L 378.223834 182.390772 
L 379.50632 184.137991 
L 380.243749 184.03221 
L 380.863617 183.792277 
L 381.333862 183.856279 
L 381.697233 183.800258 
L 382.691159 182.988216 
L 382.958344 182.83725 
L 383.802647 182.942197 
L 385.29888 182.642907 
L 385.705 182.567823 
L 386.111121 182.497656 
L 388.355471 182.179826 
L 389.605894 181.993143 
L 390.012015 182.037346 
L 391.390687 182.438785 
L 392.277739 182.583758 
L 392.897607 182.672954 
L 393.773973 182.758103 
L 395.216769 182.906692 
L 396.210695 182.900159 
L 396.659565 182.907642 
L 397.140497 182.766902 
L 398.102362 182.560093 
L 398.604668 182.594902 
L 399.427597 182.657426 
L 401.522323 182.337457 
L 402.729997 181.761808 
L 405.433904 182.654523 
L 406.149959 182.983056 
L 406.427831 183.059817 
L 408.191249 184.566422 
L 408.821804 185.392574 
L 408.96074 185.630544 
L 409.292049 185.764661 
L 410.040165 187.385949 
L 411.4509 190.767438 
L 412.79751 194.1686 
L 413.321191 194.915338 
L 413.695249 195.042221 
L 414.069308 195.265045 
L 414.678488 195.262047 
L 415.020485 194.989578 
L 417.147273 193.006274 
L 417.596143 192.907845 
L 418.09845 193.140376 
L 418.622132 193.692477 
L 419.594683 195.133511 
L 420.941293 197.169404 
L 421.657348 197.816275 
L 422.629899 198.312681 
L 423.217705 198.352824 
L 423.549014 198.168988 
L 425.376556 196.934929 
L 426.744541 196.403429 
L 427.086537 196.553347 
L 427.72778 197.116266 
L 428.604145 197.810117 
L 429.908005 198.69112 
L 430.303438 198.814689 
L 431.457676 199.239772 
L 432.729474 199.804478 
L 434.193645 200.378758 
L 435.219633 200.54629 
L 435.219633 200.54629 
" clip-path="url(#p2ad85d2fc3)" style="fill: none; stroke: #d62828; stroke-width: 1.2; stroke-linecap: square"/>
   </g>
   <g id="patch_18">
    <path d="M 328.34583 229.631102 
L 328.34583 155.965748 
" style="fill: none; stroke: #000000; stroke-width: 0.8; stroke-linejoin: miter; stroke-linecap: square"/>
   </g>
   <g id="patch_19">
    <path d="M 328.34583 229.631102 
L 435.219633 229.631102 
" style="fill: none; stroke: #000000; stroke-width: 0.8; stroke-linejoin: miter; stroke-linecap: square"/>
   </g>
   <g id="line2d_93">
    <path d="M 328.34583 170.368045 
L 351.622945 170.368045 
" clip-path="url(#p2ad85d2fc3)" style="fill: none; stroke-dasharray: 2.59,1.12; stroke-dashoffset: 0; stroke: #8b0000; stroke-opacity: 0.5; stroke-width: 0.7"/>
   </g>
   <g id="line2d_94">
    <path d="M 328.34583 214.460519 
L 343.425724 214.460519 
" clip-path="url(#p2ad85d2fc3)" style="fill: none; stroke-dasharray: 2.59,1.12; stroke-dashoffset: 0; stroke: #8b0000; stroke-opacity: 0.5; stroke-width: 0.7"/>
   </g>
   <g id="text_78">
    <text style="font-size: 8px; font-family: 'Arial', 'Liberation Sans', 'DejaVu Sans', sans-serif; text-anchor: middle" x="381.782732" y="152.965748" transform="rotate(-0 381.782732 152.965748)">Channel: CH6 </text>
   </g>
   <g id="PathCollection_6">
    <g clip-path="url(#p2ad85d2fc3)">
     <use xlink:href="#me41a1fbc06" x="351.622945" y="170.368045" style="fill: #8b0000; stroke: #8b0000"/>
     <use xlink:href="#me41a1fbc06" x="343.425724" y="214.460519" style="fill: #8b0000; stroke: #8b0000"/>
    </g>
   </g>
  </g>
  <g id="axes_7">
   <g id="patch_20">
    <path d="M 39.786563 340.129134 
L 146.660365 340.129134 
L 146.660365 266.46378 
L 39.786563 266.46378 
z
" style="fill: #ffffff"/>
   </g>
   <g id="line2d_95">
    <path d="M 39.786563 325.396063 
L 146.660365 325.396063 
" clip-path="url(#p7644aafe50)" style="fill: none; stroke: #808080; stroke-width: 0.6; stroke-linecap: square"/>
   </g>
   <g id="matplotlib.axis_13">
    <g id="xtick_37">
     <g id="line2d_96">
      <g>
       <use xlink:href="#m11994f6a2d" x="39.786563" y="340.129134" style="stroke: #000000; stroke-width: 0.8"/>
      </g>
     </g>
     <g id="text_79">
      <text style="font-size: 6px; font-family: 'Arial', 'Liberation Sans', 'DejaVu Sans', sans-serif; text-anchor: middle" x="39.786563" y="347.923821" transform="rotate(-0 39.786563 347.923821)">0</text>
     </g>
    </g>
    <g id="xtick_38">
     <g id="line2d_97">
      <g>
       <use xlink:href="#m11994f6a2d" x="61.161323" y="340.129134" style="stroke: #000000; stroke-width: 0.8"/>
      </g>
     </g>
     <g id="text_80">
      <text style="font-size: 6px; font-family: 'Arial', 'Liberation Sans', 'DejaVu Sans', sans-serif; text-anchor: middle" x="61.161323" y="347.923821" transform="rotate(-0 61.161323 347.923821)">2</text>
     </g>
    </g>
    <g id="xtick_39">
     <g id="line2d_98">
      <g>
       <use xlink:href="#m11994f6a2d" x="82.536084" y="340.129134" style="stroke: #000000; stroke-width: 0.8"/>
      </g>
     </g>
     <g id="text_81">
      <text style="font-size: 6px; font-family: 'Arial', 'Liberation Sans', 'DejaVu Sans', sans-serif; text-anchor: middle" x="82.536084" y="347.923821" transform="rotate(-0 82.536084 347.923821)">4</text>
     </g>
    </g>
    <g id="xtick_40">
     <g id="line2d_99">
      <g>
       <use xlink:href="#m11994f6a2d" x="103.910844" y="340.129134" style="stroke: #000000; stroke-width: 0.8"/>
      </g>
     </g>
     <g id="text_82">
      <text style="font-size: 6px; font-family: 'Arial', 'Liberation Sans', 'DejaVu Sans', sans-serif; text-anchor: middle" x="103.910844" y="347.923821" transform="rotate(-0 103.910844 347.923821)">6</text>
     </g>
    </g>
    <g id="xtick_41">
     <g id="line2d_100">
      <g>
       <use xlink:href="#m11994f6a2d" x="125.285605" y="340.129134" style="stroke: #000000; stroke-width: 0.8"/>
      </g>
     </g>
     <g id="text_83">
      <text style="font-size: 6px; font-family: 'Arial', 'Liberation Sans', 'DejaVu Sans', sans-serif; text-anchor: middle" x="125.285605" y="347.923821" transform="rotate(-0 125.285605 347.923821)">8</text>
     </g>
    </g>
    <g id="xtick_42">
     <g id="line2d_101">
      <g>
       <use xlink:href="#m11994f6a2d" x="146.660365" y="340.129134" style="stroke: #000000; stroke-width: 0.8"/>
      </g>
     </g>
     <g id="text_84">
      <text style="font-size: 6px; font-family: 'Arial', 'Liberation Sans', 'DejaVu Sans', sans-serif; text-anchor: middle" x="146.660365" y="347.923821" transform="rotate(-0 146.660365 347.923821)">10</text>
     </g>
    </g>
    <g id="text_85">
     <text style="font-size: 7px; font-family: 'Arial', 'Liberation Sans', 'DejaVu Sans', sans-serif; text-anchor: middle" x="93.223464" y="358.212103" transform="rotate(-0 93.223464 358.212103)">Time (s)</text>
    </g>
   </g>
   <g id="matplotlib.axis_14">
    <g id="ytick_35">
     <g id="line2d_102">
      <g>
       <use xlink:href="#m442ede4ba4" x="39.786563" y="340.129134" style="stroke: #000000; stroke-width: 0.8"/>
      </g>
     </g>
     <g id="text_86">
      <text style="font-size: 6px; font-family: 'Arial', 'Liberation Sans', 'DejaVu Sans', sans-serif; text-anchor: end; fill: #333333" x="36.286563" y="342.276478" transform="rotate(-0 36.286563 342.276478)">−100.0</text>
     </g>
    </g>
    <g id="ytick_36">
     <g id="line2d_103">
      <g>
       <use xlink:href="#m442ede4ba4" x="39.786563" y="329.197578" style="stroke: #000000; stroke-width: 0.8"/>
      </g>
     </g>
     <g id="text_87">
      <text style="font-size: 6px; font-family: 'Arial', 'Liberation Sans', 'DejaVu Sans', sans-serif; text-anchor: end; fill: #333333" x="36.286563" y="331.344922" transform="rotate(-0 36.286563 331.344922)">−25.8</text>
     </g>
    </g>
    <g id="ytick_37">
     <g id="line2d_104">
      <g>
       <use xlink:href="#m442ede4ba4" x="39.786563" y="310.662992" style="stroke: #000000; stroke-width: 0.8"/>
      </g>
     </g>
     <g id="text_88">
      <text style="font-size: 6px; font-family: 'Arial', 'Liberation Sans', 'DejaVu Sans', sans-serif; text-anchor: end; fill: #333333" x="36.286563" y="312.810336" transform="rotate(-0 36.286563 312.810336)">100.0</text>
     </g>
    </g>
    <g id="ytick_38">
     <g id="line2d_105">
      <g>
       <use xlink:href="#m442ede4ba4" x="39.786563" y="295.929921" style="stroke: #000000; stroke-width: 0.8"/>
      </g>
     </g>
     <g id="text_89">
      <text style="font-size: 6px; font-family: 'Arial', 'Liberation Sans', 'DejaVu Sans', sans-serif; text-anchor: end; fill: #333333" x="36.286563" y="298.077265" transform="rotate(-0 36.286563 298.077265)">200.0</text>
     </g>
    </g>
    <g id="ytick_39">
     <g id="line2d_106">
      <g>
       <use xlink:href="#m442ede4ba4" x="39.786563" y="276.254488" style="stroke: #000000; stroke-width: 0.8"/>
      </g>
     </g>
     <g id="text_90">
      <text style="font-size: 6px; font-family: 'Arial', 'Liberation Sans', 'DejaVu Sans', sans-serif; text-anchor: end; fill: #333333" x="36.286563" y="278.401832" transform="rotate(-0 36.286563 278.401832)">333.5</text>
     </g>
    </g>
    <g id="ytick_40">
     <g id="line2d_107">
      <g>
       <use xlink:href="#m442ede4ba4" x="39.786563" y="266.46378" style="stroke: #000000; stroke-width: 0.8"/>
      </g>
     </g>
     <g id="text_91">
      <text style="font-size: 6px; font-family: 'Arial', 'Liberation Sans', 'DejaVu Sans', sans-serif; text-anchor: end; fill: #333333" x="36.286563" y="268.611123" transform="rotate(-0 36.286563 268.611123)">400.0</text>
     </g>
    </g>
    <g id="text_92">
     <text style="font-size: 7px; font-family: 'Arial', 'Liberation Sans', 'DejaVu Sans', sans-serif; text-anchor: middle" x="12.295781" y="303.296457" transform="rotate(-90 12.295781 303.296457)">Angle (°)</text>
    </g>
   </g>
   <g id="line2d_108">
    <path d="M 39.786563 325.382617 
L 40.833926 325.745148 
L 42.800404 326.35082 
L 45.974556 327.05457 
L 48.411278 327.558342 
L 51.87399 328.170581 
L 53.883217 328.19329 
L 54.642021 328.30584 
L 55.048142 328.60537 
L 55.796258 329.185757 
L 56.063443 329.138727 
L 56.298565 328.814184 
L 56.619186 327.918453 
L 57.089431 325.856517 
L 57.559676 322.835674 
L 58.211606 316.963974 
L 58.981098 307.530882 
L 60.274271 292.234806 
L 61.107886 285.056715 
L 61.823941 280.76294 
L 62.475871 278.299692 
L 62.96749 277.12902 
L 63.437735 276.542964 
L 63.886605 276.289361 
L 64.399599 276.272847 
L 64.923281 276.469947 
L 65.756897 277.123728 
L 67.851623 279.401449 
L 68.076058 279.662245 
L 68.364617 279.791836 
L 70.908214 282.707462 
L 73.067065 285.259784 
L 73.857931 285.84652 
L 76.209155 287.145771 
L 77.780199 287.77934 
L 78.677939 287.951755 
L 82.119276 288.570338 
L 83.444511 289.093265 
L 84.246065 289.129682 
L 86.137731 288.969192 
L 86.821723 288.518024 
L 87.559152 288.377461 
L 88.317956 288.270035 
L 89.408069 288.17411 
L 89.921063 288.427668 
L 90.91499 288.825349 
L 91.823417 288.642498 
L 92.817344 288.119658 
L 93.341025 287.75428 
L 93.896769 287.142146 
L 94.847946 286.054118 
L 96.173181 284.803633 
L 97.145733 284.215648 
L 97.957973 283.917991 
L 98.70609 283.817597 
L 102.329112 283.720368 
L 104.381089 283.968545 
L 110.547707 284.094466 
L 111.851568 284.242995 
L 113.198178 284.084932 
L 114.801285 283.679397 
L 115.645588 283.789016 
L 116.511266 284.063034 
L 117.195258 284.51414 
L 118.189184 285.473112 
L 118.915926 286.574629 
L 119.621293 288.14075 
L 120.401472 290.36733 
L 120.700719 290.509178 
L 121.534334 293.677 
L 123.971057 303.199543 
L 124.740548 305.30244 
L 124.761923 305.351027 
L 125.071857 305.471313 
L 125.884098 307.004561 
L 126.65359 308.066215 
L 127.155896 308.640848 
L 127.444456 308.76183 
L 129.090312 310.282149 
L 131.291913 312.060157 
L 132.702647 312.890492 
L 134.904247 313.889703 
L 138.559331 314.471863 
L 142.374726 316.273033 
L 142.919782 316.391118 
L 145.591627 317.405634 
L 146.660365 317.643741 
L 146.660365 317.643741 
" clip-path="url(#p7644aafe50)" style="fill: none; stroke: #d62828; stroke-width: 1.2; stroke-linecap: square"/>
   </g>
   <g id="patch_21">
    <path d="M 39.786563 340.129134 
L 39.786563 266.46378 
" style="fill: none; stroke: #000000; stroke-width: 0.8; stroke-linejoin: miter; stroke-linecap: square"/>
   </g>
   <g id="patch_22">
    <path d="M 39.786563 340.129134 
L 146.660365 340.129134 
" style="fill: none; stroke: #000000; stroke-width: 0.8; stroke-linejoin: miter; stroke-linecap: square"/>
   </g>
   <g id="line2d_109">
    <path d="M 39.786563 276.254488 
L 64.239289 276.254488 
" clip-path="url(#p7644aafe50)" style="fill: none; stroke-dasharray: 2.59,1.12; stroke-dashoffset: 0; stroke: #8b0000; stroke-opacity: 0.5; stroke-width: 0.7"/>
   </g>
   <g id="line2d_110">
    <path d="M 39.786563 329.197578 
L 55.903132 329.197578 
" clip-path="url(#p7644aafe50)" style="fill: none; stroke-dasharray: 2.59,1.12; stroke-dashoffset: 0; stroke: #8b0000; stroke-opacity: 0.5; stroke-width: 0.7"/>
   </g>
   <g id="text_93">
    <text style="font-size: 8px; font-family: 'Arial', 'Liberation Sans', 'DejaVu Sans', sans-serif; text-anchor: middle" x="93.223464" y="263.46378" transform="rotate(-0 93.223464 263.46378)">Channel: CH7 </text>
   </g>
   <g id="PathCollection_7">
    <g clip-path="url(#p7644aafe50)">
     <use xlink:href="#me41a1fbc06" x="64.239289" y="276.254488" style="fill: #8b0000; stroke: #8b0000"/>
     <use xlink:href="#me41a1fbc06" x="55.903132" y="329.197578" style="fill: #8b0000; stroke: #8b0000"/>
    </g>
   </g>
  </g>
  <g id="axes_8">
   <g id="patch_23">
    <path d="M 184.066196 340.129134 
L 290.939999 340.129134 
L 290.939999 266.46378 
L 184.066196 266.46378 
z
" style="fill: #ffffff"/>
   </g>
   <g id="line2d_111">
    <path d="M 184.066196 321.712795 
L 290.939999 321.712795 
" clip-path="url(#p8479d2cf03)" style="fill: none; stroke: #808080; stroke-width: 0.6; stroke-linecap: square"/>
   </g>
   <g id="matplotlib.axis_15">
    <g id="xtick_43">
     <g id="line2d_112">
      <g>
       <use xlink:href="#m11994f6a2d" x="184.066196" y="340.129134" style="stroke: #000000; stroke-width: 0.8"/>
      </g>
     </g>
     <g id="text_94">
      <text style="font-size: 6px; font-family: 'Arial', 'Liberation Sans', 'DejaVu Sans', sans-serif; text-anchor: middle" x="184.066196" y="347.923821" transform="rotate(-0 184.066196 347.923821)">0</text>
     </g>
    </g>
    <g id="xtick_44">
     <g id="line2d_113">
      <g>
       <use xlink:href="#m11994f6a2d" x="205.440957" y="340.129134" style="stroke: #000000; stroke-width: 0.8"/>
      </g>
     </g>
     <g id="text_95">
      <text style="font-size: 6px; font-family: 'Arial', 'Liberation Sans', 'DejaVu Sans', sans-serif; text-anchor: middle" x="205.440957" y="347.923821" transform="rotate(-0 205.440957 347.923821)">2</text>
     </g>
    </g>
    <g id="xtick_45">
     <g id="line2d_114">
      <g>
       <use xlink:href="#m11994f6a2d" x="226.815718" y="340.129134" style="stroke: #000000; stroke-width: 0.8"/>
      </g>
     </g>
     <g id="text_96">
      <text style="font-size: 6px; font-family: 'Arial', 'Liberation Sans', 'DejaVu Sans', sans-serif; text-anchor: middle" x="226.815718" y="347.923821" transform="rotate(-0 226.815718 347.923821)">4</text>
     </g>
    </g>
    <g id="xtick_46">
     <g id="line2d_115">
      <g>
       <use xlink:href="#m11994f6a2d" x="248.190478" y="340.129134" style="stroke: #000000; stroke-width: 0.8"/>
      </g>
     </g>
     <g id="text_97">
      <text style="font-size: 6px; font-family: 'Arial', 'Liberation Sans', 'DejaVu Sans', sans-serif; text-anchor: middle" x="248.190478" y="347.923821" transform="rotate(-0 248.190478 347.923821)">6</text>
     </g>
    </g>
    <g id="xtick_47">
     <g id="line2d_116">
      <g>
       <use xlink:href="#m11994f6a2d" x="269.565239" y="340.129134" style="stroke: #000000; stroke-width: 0.8"/>
      </g>
     </g>
     <g id="text_98">
      <text style="font-size: 6px; font-family: 'Arial', 'Liberation Sans', 'DejaVu Sans', sans-serif; text-anchor: middle" x="269.565239" y="347.923821" transform="rotate(-0 269.565239 347.923821)">8</text>
     </g>
    </g>
    <g id="xtick_48">
     <g id="line2d_117">
      <g>
       <use xlink:href="#m11994f6a2d" x="290.939999" y="340.129134" style="stroke: #000000; stroke-width: 0.8"/>
      </g>
     </g>
     <g id="text_99">
      <text style="font-size: 6px; font-family: 'Arial', 'Liberation Sans', 'DejaVu Sans', sans-serif; text-anchor: middle" x="290.939999" y="347.923821" transform="rotate(-0 290.939999 347.923821)">10</text>
     </g>
    </g>
    <g id="text_100">
     <text style="font-size: 7px; font-family: 'Arial', 'Liberation Sans', 'DejaVu Sans', sans-serif; text-anchor: middle" x="237.503098" y="358.212103" transform="rotate(-0 237.503098 358.212103)">Time (s)</text>
    </g>
   </g>
   <g id="matplotlib.axis_16">
    <g id="ytick_41">
     <g id="line2d_118">
      <g>
       <use xlink:href="#m442ede4ba4" x="184.066196" y="340.129134" style="stroke: #000000; stroke-width: 0.8"/>
      </g>
     </g>
     <g id="text_101">
      <text style="font-size: 6px; font-family: 'Arial', 'Liberation Sans', 'DejaVu Sans', sans-serif; text-anchor: end; fill: #333333" x="180.566196" y="342.276478" transform="rotate(-0 180.566196 342.276478)">−50.0</text>
     </g>
    </g>
    <g id="ytick_42">
     <g id="line2d_119">
      <g>
       <use xlink:href="#m442ede4ba4" x="184.066196" y="331.973213" style="stroke: #000000; stroke-width: 0.8"/>
      </g>
     </g>
     <g id="text_102">
      <text style="font-size: 6px; font-family: 'Arial', 'Liberation Sans', 'DejaVu Sans', sans-serif; text-anchor: end; fill: #333333" x="180.566196" y="334.120557" transform="rotate(-0 180.566196 334.120557)">−27.9</text>
     </g>
    </g>
    <g id="ytick_43">
     <g id="line2d_120">
      <g>
       <use xlink:href="#m442ede4ba4" x="184.066196" y="321.712795" style="stroke: #000000; stroke-width: 0.8"/>
      </g>
     </g>
     <g id="text_103">
      <text style="font-size: 6px; font-family: 'Arial', 'Liberation Sans', 'DejaVu Sans', sans-serif; text-anchor: end; fill: #333333" x="180.566196" y="323.860139" transform="rotate(-0 180.566196 323.860139)">0.0</text>
     </g>
    </g>
    <g id="ytick_44">
     <g id="line2d_121">
      <g>
       <use xlink:href="#m442ede4ba4" x="184.066196" y="303.296457" style="stroke: #000000; stroke-width: 0.8"/>
      </g>
     </g>
     <g id="text_104">
      <text style="font-size: 6px; font-family: 'Arial', 'Liberation Sans', 'DejaVu Sans', sans-serif; text-anchor: end; fill: #333333" x="180.566196" y="305.4438" transform="rotate(-0 180.566196 305.4438)">50.0</text>
     </g>
    </g>
    <g id="ytick_45">
     <g id="line2d_122">
      <g>
       <use xlink:href="#m442ede4ba4" x="184.066196" y="279.0475" style="stroke: #000000; stroke-width: 0.8"/>
      </g>
     </g>
     <g id="text_105">
      <text style="font-size: 6px; font-family: 'Arial', 'Liberation Sans', 'DejaVu Sans', sans-serif; text-anchor: end; fill: #333333" x="180.566196" y="281.194844" transform="rotate(-0 180.566196 281.194844)">115.8</text>
     </g>
    </g>
    <g id="ytick_46">
     <g id="line2d_123">
      <g>
       <use xlink:href="#m442ede4ba4" x="184.066196" y="266.46378" style="stroke: #000000; stroke-width: 0.8"/>
      </g>
     </g>
     <g id="text_106">
      <text style="font-size: 6px; font-family: 'Arial', 'Liberation Sans', 'DejaVu Sans', sans-serif; text-anchor: end; fill: #333333" x="180.566196" y="268.611123" transform="rotate(-0 180.566196 268.611123)">150.0</text>
     </g>
    </g>
   </g>
   <g id="line2d_124">
    <path d="M 184.066196 321.705885 
L 184.429567 321.8267 
L 185.156309 322.251838 
L 185.96855 322.711545 
L 188.073964 323.480237 
L 190.061817 323.763048 
L 191.419114 323.921721 
L 193.513841 324.328397 
L 195.929189 325.270635 
L 196.666618 325.879696 
L 197.478859 327.647096 
L 197.778105 327.77202 
L 198.162851 329.032996 
L 198.376599 329.183041 
L 199.14609 331.485955 
L 199.530836 331.933304 
L 199.776645 331.950001 
L 200.097267 331.720262 
L 200.353764 331.346139 
L 200.620949 330.362231 
L 201.112568 327.581831 
L 201.860685 321.911181 
L 204.618029 299.695194 
L 205.889827 291.830518 
L 206.402821 290.079219 
L 207.033377 288.595983 
L 207.38606 288.267323 
L 207.663932 288.287495 
L 208.091427 288.549291 
L 212.355692 292.691463 
L 212.665626 292.817059 
L 213.574053 293.752108 
L 214.022923 294.347676 
L 216.149712 298.114629 
L 217.346699 299.891132 
L 217.795569 300.0807 
L 218.725371 300.302577 
L 221.236905 300.608878 
L 222.391142 300.443178 
L 224.517931 299.386703 
L 225.70423 299.340127 
L 226.099663 299.650581 
L 226.815718 300.585413 
L 227.392836 301.260729 
L 227.841706 301.426076 
L 228.365388 301.420914 
L 228.857007 301.366786 
L 230.043306 301.260253 
L 230.224992 301.013558 
L 230.748674 299.639794 
L 231.186856 298.830736 
L 231.806724 298.123458 
L 232.266282 297.694805 
L 233.794577 295.18151 
L 234.147261 295.213006 
L 234.916752 295.207096 
L 235.151874 295.120184 
L 235.878616 294.26264 
L 236.402298 293.32533 
L 237.98403 290.207131 
L 240.442128 283.167308 
L 241.147495 282.133994 
L 242.301732 281.197433 
L 242.739914 281.134411 
L 244.107899 281.290838 
L 244.631581 281.019338 
L 245.080451 280.833658 
L 245.849942 280.710694 
L 246.747682 280.717798 
L 248.703472 280.669741 
L 249.494339 280.55129 
L 250.135581 280.541124 
L 251.781438 280.085624 
L 252.337182 279.98718 
L 252.850176 279.797656 
L 253.801353 279.459389 
L 254.239535 279.524089 
L 255.340336 279.894567 
L 256.857944 279.964566 
L 257.19994 279.837287 
L 258.119055 279.183747 
L 258.471738 279.051876 
L 260.032096 279.451339 
L 260.523715 279.821013 
L 261.357331 280.875098 
L 263.056624 283.667904 
L 263.601681 285.258368 
L 264.681106 288.873133 
L 264.969665 289.004817 
L 265.675032 292.373671 
L 267.385013 300.336269 
L 268.453751 304.187182 
L 269.041557 305.550067 
L 269.362179 305.680055 
L 269.949985 306.607508 
L 270.548478 307.221677 
L 271.873713 307.674861 
L 273.049325 307.730125 
L 273.594381 307.826541 
L 274.299748 308.177546 
L 276.159352 309.195106 
L 276.704409 309.318793 
L 277.612836 309.241135 
L 279.194568 308.872375 
L 280.936611 307.353802 
L 282.400783 306.534597 
L 282.721404 306.60515 
L 283.202336 307.04411 
L 285.425311 309.422416 
L 285.628371 309.625769 
L 285.927618 309.751563 
L 286.65436 310.448609 
L 287.06048 310.569938 
L 289.657514 312.455864 
L 290.40563 312.740868 
L 290.939999 312.913351 
L 290.939999 312.913351 
" clip-path="url(#p8479d2cf03)" style="fill: none; stroke: #d62828; stroke-width: 1.2; stroke-linecap: square"/>
   </g>
   <g id="patch_24">
    <path d="M 184.066196 340.129134 
L 184.066196 266.46378 
" style="fill: none; stroke: #000000; stroke-width: 0.8; stroke-linejoin: miter; stroke-linecap: square"/>
   </g>
   <g id="patch_25">
    <path d="M 184.066196 340.129134 
L 290.939999 340.129134 
" style="fill: none; stroke: #000000; stroke-width: 0.8; stroke-linejoin: miter; stroke-linecap: square"/>
   </g>
   <g id="line2d_125">
    <path d="M 184.066196 279.0475 
L 258.354177 279.0475 
" clip-path="url(#p8479d2cf03)" style="fill: none; stroke-dasharray: 2.59,1.12; stroke-dashoffset: 0; stroke: #8b0000; stroke-opacity: 0.5; stroke-width: 0.7"/>
   </g>
   <g id="line2d_126">
    <path d="M 184.066196 331.973213 
L 199.63771 331.973213 
" clip-path="url(#p8479d2cf03)" style="fill: none; stroke-dasharray: 2.59,1.12; stroke-dashoffset: 0; stroke: #8b0000; stroke-opacity: 0.5; stroke-width: 0.7"/>
   </g>
   <g id="text_107">
    <text style="font-size: 8px; font-family: 'Arial', 'Liberation Sans', 'DejaVu Sans', sans-serif; text-anchor: middle" x="237.503098" y="263.46378" transform="rotate(-0 237.503098 263.46378)">Channel: CH8 </text>
   </g>
   <g id="PathCollection_8">
    <g clip-path="url(#p8479d2cf03)">
     <use xlink:href="#me41a1fbc06" x="258.354177" y="279.0475" style="fill: #8b0000; stroke: #8b0000"/>
     <use xlink:href="#me41a1fbc06" x="199.63771" y="331.973213" style="fill: #8b0000; stroke: #8b0000"/>
    </g>
   </g>
  </g>
  <g id="text_108">
   <text style="font-weight: 700; font-size: 12px; font-family: 'Arial', 'Liberation Sans', 'DejaVu Sans', sans-serif; text-anchor: middle" x="231.125145" y="15.935625" transform="rotate(-0 231.125145 15.935625)">Strain Bending Angle Array [Slice T]</text>
  </g>
 </g>
 <defs>
  <clipPath id="pe12272398f">
   <rect x="39.786563" y="45.467717" width="106.873803" height="73.665354"/>
  </clipPath>
  <clipPath id="p2d497ccf5f">
   <rect x="184.066196" y="45.467717" width="106.873803" height="73.665354"/>
  </clipPath>
  <clipPath id="p3d63d0bf1a">
   <rect x="328.34583" y="45.467717" width="106.873803" height="73.665354"/>
  </clipPath>
  <clipPath id="p6afd528861">
   <rect x="39.786563" y="155.965748" width="106.873803" height="73.665354"/>
  </clipPath>
  <clipPath id="pd98bcd6d41">
   <rect x="184.066196" y="155.965748" width="106.873803" height="73.665354"/>
  </clipPath>
  <clipPath id="p2ad85d2fc3">
   <rect x="328.34583" y="155.965748" width="106.873803" height="73.665354"/>
  </clipPath>
  <clipPath id="p7644aafe50">
   <rect x="39.786563" y="266.46378" width="106.873803" height="73.665354"/>
  </clipPath>
  <clipPath id="p8479d2cf03">
   <rect x="184.066196" y="266.46378" width="106.873803" height="73.665354"/>
  </clipPath>
 </defs>
</svg>
